<svg width="32" height="32" viewBox="0 0 32 32" fill="none" xmlns="http://www.w3.org/2000/svg">
<path d="M18.3067 28.0003C18.0723 28.4044 17.7358 28.7399 17.331 28.973C16.9261 29.2062 16.4672 29.3289 16 29.3289C15.5328 29.3289 15.0739 29.2062 14.669 28.973C14.2642 28.7399 13.9277 28.4044 13.6933 28.0003M24 10.667C24 8.54526 23.1571 6.51043 21.6569 5.01014C20.1566 3.50985 18.1217 2.66699 16 2.66699C13.8783 2.66699 11.8434 3.50985 10.3431 5.01014C8.84286 6.51043 8 8.54526 8 10.667C8 20.0003 4 22.667 4 22.667H28C28 22.667 24 20.0003 24 10.667Z" stroke="#090A0A" stroke-width="1.5" stroke-linecap="round" stroke-linejoin="round"/>
</svg>
