<svg width="24" height="31" viewBox="0 0 24 31" fill="none" xmlns="http://www.w3.org/2000/svg">
<path d="M20.2924 0H13.721V6.29145C16.0724 6.53531 18.3268 7.31109 20.2924 8.5529V0ZM10.4353 0H3.86384V8.5529C5.82949 7.31109 8.08381 6.53531 10.4353 6.29145V0ZM12.0781 31C15.1281 31 18.0532 29.8569 20.2099 27.8221C22.3665 25.7873 23.5781 23.0276 23.5781 20.15C23.5781 17.2724 22.3665 14.5127 20.2099 12.4779C18.0532 10.4431 15.1281 9.3 12.0781 9.3C9.02814 9.3 6.10306 10.4431 3.9464 12.4779C1.78973 14.5127 0.578125 17.2724 0.578125 20.15C0.578125 23.0276 1.78973 25.7873 3.9464 27.8221C6.10306 29.8569 9.02814 31 12.0781 31ZM10.0656 17.7955L12.0781 13.95L14.0906 17.7955L18.5888 18.4109L15.3343 21.4055L16.1031 25.6323L12.0781 23.6375L8.05477 25.6323L8.82362 21.4055L5.56913 18.4109L10.0656 17.7955Z" fill="#CCA269"/>
</svg>
