<svg width="30" height="26" viewBox="0 0 30 26" fill="none" xmlns="http://www.w3.org/2000/svg">
<path d="M28.75 21.75C28.75 22.413 28.4866 23.0489 28.0178 23.5178C27.5489 23.9866 26.913 24.25 26.25 24.25H3.75C3.08696 24.25 2.45107 23.9866 1.98223 23.5178C1.51339 23.0489 1.25 22.413 1.25 21.75V8C1.25 7.33696 1.51339 6.70107 1.98223 6.23223C2.45107 5.76339 3.08696 5.5 3.75 5.5H8.75L11.25 1.75H18.75L21.25 5.5H26.25C26.913 5.5 27.5489 5.76339 28.0178 6.23223C28.4866 6.70107 28.75 7.33696 28.75 8V21.75Z" fill="#1C4E79"/>
<path d="M15 19.25C17.7614 19.25 20 17.0114 20 14.25C20 11.4886 17.7614 9.25 15 9.25C12.2386 9.25 10 11.4886 10 14.25C10 17.0114 12.2386 19.25 15 19.25Z" fill="#1C4E79"/>
<path d="M28.75 21.75C28.75 22.413 28.4866 23.0489 28.0178 23.5178C27.5489 23.9866 26.913 24.25 26.25 24.25H3.75C3.08696 24.25 2.45107 23.9866 1.98223 23.5178C1.51339 23.0489 1.25 22.413 1.25 21.75V8C1.25 7.33696 1.51339 6.70107 1.98223 6.23223C2.45107 5.76339 3.08696 5.5 3.75 5.5H8.75L11.25 1.75H18.75L21.25 5.5H26.25C26.913 5.5 27.5489 5.76339 28.0178 6.23223C28.4866 6.70107 28.75 7.33696 28.75 8V21.75Z" stroke="white" stroke-width="2" stroke-linecap="round" stroke-linejoin="round"/>
<path d="M15 19.25C17.7614 19.25 20 17.0114 20 14.25C20 11.4886 17.7614 9.25 15 9.25C12.2386 9.25 10 11.4886 10 14.25C10 17.0114 12.2386 19.25 15 19.25Z" stroke="white" stroke-width="2" stroke-linecap="round" stroke-linejoin="round"/>
</svg>
