<svg width="22" height="22" viewBox="0 0 22 22" fill="none" xmlns="http://www.w3.org/2000/svg">
<path d="M9.9999 3.1213H2.99998C2.46955 3.1213 1.96085 3.33201 1.58578 3.70708C1.21071 4.08214 1 4.59085 1 5.12127V19.1211C1 19.6515 1.21071 20.1602 1.58578 20.5353C1.96085 20.9104 2.46955 21.1211 2.99998 21.1211H16.9998C17.5302 21.1211 18.0389 20.9104 18.414 20.5353C18.7891 20.1602 18.9998 19.6515 18.9998 19.1211V12.1212M17.4998 1.62131C17.8976 1.22349 18.4372 1 18.9998 1C19.5624 1 20.102 1.22349 20.4998 1.62131C20.8976 2.01913 21.1211 2.55869 21.1211 3.1213C21.1211 3.6839 20.8976 4.22346 20.4998 4.62128L10.9999 14.1212L6.99993 15.1212L7.99992 11.1212L17.4998 1.62131Z" stroke="#6C7072" stroke-width="1.49998" stroke-linecap="round" stroke-linejoin="round"/>
</svg>
