<svg width="20" height="24" viewBox="0 0 20 24" fill="none" xmlns="http://www.w3.org/2000/svg">
<path d="M19.6425 9.68C19.6425 9.68 18.4851 10.8 16.5177 12.12C15.9776 8.88 14.473 4.88 11.5411 0C11.5411 0 10.5766 5.24 7.3746 10.16C5.98579 7.92 5.36853 6.16 5.36853 6.16C-4.66181 16.6 3.67109 24 8.91773 24C15.6304 24 21.5328 20.64 19.6425 9.68Z" fill="#FF9D33"/>
<path d="M15.6689 18.96C16.2476 17.64 16.672 15.92 16.7491 13.76C16.7491 13.76 15.939 14.48 14.5502 15.4C14.1644 13.24 13.1228 10.6 11.0781 7.32C11.0781 7.32 10.4223 10.8 8.18474 14.12C7.22029 12.64 6.79593 11.44 6.79593 11.44C5.13706 14.16 4.48123 16.32 4.44265 18.04C3.51678 17.68 2.9381 17.4 2.9381 17.4C4.51981 22.28 7.79896 23.36 9.26494 23.36C11.8883 23.36 14.5502 22.56 17.1735 18.68C17.1735 18.64 16.5948 18.8 15.6689 18.96Z" fill="#FFCE31"/>
<path d="M6.10152 16.76C6.10152 16.76 7.18171 18.28 7.99185 17.92C7.99185 17.92 9.53498 15.4 11.7725 14C11.7725 14 11.3096 17.84 11.8497 18.52C12.5441 19.44 14.4344 17.52 14.4344 17.52C14.4344 19.8 12.0426 22.64 9.88219 22.64C7.79896 22.64 4.78986 20.16 6.10152 16.76Z" fill="#FFDF85"/>
<path d="M16.8649 6.44C17.675 5.24 18.2151 3.96 18.2151 3.96C19.5653 6.28 18.7552 7.68 18.1765 8.12C17.3664 8.76 15.939 7.84 16.8649 6.44ZM2.12796 6.04C1.31782 4.64 1.24066 2.88 1.24066 2.88C-0.688254 5.88 0.0447327 7.56 0.700563 8.04C1.54928 8.72 3.01526 7.68 2.12796 6.04ZM6.60304 2.92C6.71877 1.96 6.33299 1 6.33299 1C8.14617 2.24 8.14617 3.28 7.9147 3.72C7.56749 4.24 6.4873 4 6.60304 2.92Z" fill="#FF9D33"/>
</svg>
