<svg width="24" height="24" viewBox="0 0 24 24" fill="none" xmlns="http://www.w3.org/2000/svg">
<path fill-rule="evenodd" clip-rule="evenodd" d="M22.1749 12C22.1749 6.88421 18.1414 1.80451 11.8631 1.80451C6.793 1.80451 4.28532 5.51459 3.21764 7.48872H6.38783C6.62986 7.48872 6.86197 7.58378 7.0331 7.75299C7.20424 7.92219 7.30038 8.15169 7.30038 8.39098C7.30038 8.63027 7.20424 8.85976 7.0331 9.02897C6.86197 9.19818 6.62986 9.29323 6.38783 9.29323H0.912548C0.670525 9.29323 0.438415 9.19818 0.267279 9.02897C0.0961431 8.85976 0 8.63027 0 8.39098V2.97744C0 2.73815 0.0961431 2.50866 0.267279 2.33945C0.438415 2.17025 0.670525 2.07519 0.912548 2.07519C1.15457 2.07519 1.38668 2.17025 1.55782 2.33945C1.72895 2.50866 1.8251 2.73815 1.8251 2.97744V6.24902C3.11179 4.00782 6.08487 0 11.8631 0C19.2785 0 24 6.01805 24 12C24 17.982 19.2785 24 11.8631 24C8.31513 24 5.36213 22.6105 3.25779 20.4956C2.14286 19.3703 1.25849 18.0425 0.653384 16.5853C0.607846 16.4757 0.584587 16.3583 0.584935 16.2398C0.585284 16.1213 0.609233 16.004 0.655415 15.8947C0.701597 15.7854 0.769108 15.6861 0.854093 15.6026C0.939078 15.519 1.03987 15.4528 1.15072 15.4078C1.26157 15.3628 1.38031 15.3398 1.50014 15.3401C1.61998 15.3405 1.73858 15.3642 1.84916 15.4098C1.95974 15.4555 2.06015 15.5222 2.14464 15.6063C2.22913 15.6903 2.29606 15.79 2.3416 15.8995C2.85262 17.1284 3.60456 18.2707 4.56091 19.2307C6.33491 21.0171 8.82433 22.1955 11.8631 22.1955C18.1414 22.1955 22.1749 17.1158 22.1749 12ZM11.8631 5.68421C12.1051 5.68421 12.3373 5.77927 12.5084 5.94848C12.6795 6.11768 12.7757 6.34717 12.7757 6.58647V11.6265L16.1594 14.9702C16.3307 15.1396 16.427 15.3694 16.427 15.609C16.427 15.8486 16.3307 16.0784 16.1594 16.2478C15.988 16.4172 15.7556 16.5124 15.5133 16.5124C15.271 16.5124 15.0386 16.4172 14.8672 16.2478L11.217 12.6388C11.1323 12.5549 11.0652 12.4552 11.0195 12.3456C10.9738 12.236 10.9504 12.1186 10.9506 12V6.58647C10.9506 6.34717 11.0467 6.11768 11.2178 5.94848C11.389 5.77927 11.6211 5.68421 11.8631 5.68421Z" fill="#979C9E"/>
</svg>
