<svg width="250" height="250" viewBox="0 0 250 250" fill="none" xmlns="http://www.w3.org/2000/svg">
<path d="M21.9995 138.876C21.8245 136.651 21.6895 134.424 21.582 132.201" stroke="#234C79" stroke-width="1.0125" stroke-miterlimit="10"/>
<path d="M148.536 218.91H85.0312" stroke="#CCDDE2" stroke-width="1.0125" stroke-miterlimit="10"/>
<path d="M167.074 59.8211C167.074 59.8211 185.789 50.9836 201.667 68.2261C206.854 73.8611 210.394 81.3386 210.644 89.0536C210.758 92.8181 210.151 96.5693 208.857 100.106C207.539 103.716 205.174 106.106 203.357 109.321C200.569 114.279 206.397 115.156 209.524 117.559C211.603 119.169 213.574 120.912 215.427 122.779C219.601 126.948 223.274 131.59 226.372 136.611C232.505 146.613 236.198 157.918 237.152 169.611C238.094 181.141 237.372 193.661 231.459 203.904C228.614 208.836 224.329 213.674 219.059 215.974C212.059 219.026 204.197 218.911 196.717 218.911H180.799" stroke="#CCDDE2" stroke-width="1.0125" stroke-miterlimit="10"/>
<path d="M89.0609 175.035C88.4334 179.5 87.4984 184.622 86.4659 189.75L85.2484 190.097C81.3519 191.192 77.2142 191.07 73.3884 189.75L74.9834 184.33L65.2734 156.08C65.2734 156.08 72.6959 153.68 78.7909 151.897L79.4909 151.867C82.8209 152.57 89.6834 155.207 89.8984 165.085C89.9134 165.56 89.8984 166.06 89.8984 166.605C90.8659 169.792 90.4809 172.602 89.0609 175.035Z" fill="#A2CCCD"/>
<path d="M66.2059 67.5002C66.1102 67.2565 65.9229 67.0602 65.6842 66.9532C65.4452 66.846 65.1739 66.837 64.9284 66.9277C64.7909 66.9692 64.6637 67.04 64.5559 67.1352C64.1709 67.4477 64.0834 67.9952 64.0709 68.5152C64.0359 69.7027 63.9684 70.8927 63.8809 72.0752C63.8809 72.1552 63.8684 72.2452 63.8684 72.3252C63.8134 73.2777 63.8534 74.4327 63.4484 75.2627C63.4224 75.326 63.3782 75.38 63.3209 75.4177C63.1859 75.4802 63.0434 75.3452 62.9559 75.2227C62.7059 74.8577 62.4559 74.5002 62.2059 74.1277C62.0084 73.8302 61.7859 73.5077 61.4409 73.4127C60.9284 73.2702 60.4409 73.7227 60.1584 74.1827C59.2459 75.6827 59.1584 78.1402 60.5709 79.3977C61.9834 80.6552 58.8209 83.1277 56.5559 84.1677C56.1767 84.381 55.7794 84.56 55.3684 84.7027C55.3484 84.7027 56.1859 84.8902 56.1659 84.8977C54.4034 85.5112 52.5674 85.8887 50.7059 86.0202C48.4959 86.1677 46.3409 85.8902 44.7734 84.9302C44.8409 84.6802 45.3759 82.9302 45.4084 82.6802C45.5234 81.8077 45.6059 80.9427 45.6584 80.0652C45.7534 78.4177 45.7459 76.7677 45.6834 75.1252C45.4559 69.2152 46.5084 64.2502 48.9484 63.4927C49.1412 63.435 49.3259 63.3535 49.4984 63.2502C50.5984 62.6427 51.1859 61.3602 50.6809 60.1502C50.6459 60.0677 50.6059 59.9877 50.5709 59.9002C50.5314 59.814 50.4864 59.7305 50.4359 59.6502C55.2009 58.1702 58.4359 59.1977 61.7059 60.9877C62.3282 61.485 62.9132 62.0272 63.4559 62.6102C64.7359 63.9997 65.6772 65.6665 66.2059 67.4802V67.5002Z" fill="#A2CCCD"/>
<path d="M180.751 124.32H164.501V85.4803C164.501 85.4803 161.501 119.228 153.281 138.348H102.953C108.886 134.578 113.643 128.883 116.811 122.753C118.061 120.328 120.061 116.728 123.386 117.673C124.176 117.895 125.338 118.038 125.926 117.315C126.128 117.038 126.243 116.706 126.256 116.363C126.541 112.823 122.871 109.843 119.846 108.903C116.821 107.963 113.286 108.403 110.878 110.6C109.143 112.188 108.056 114.295 106.786 116.248C106.023 117.405 105.12 118.462 104.096 119.395C105.401 111.47 106.563 103.895 106.731 101.108C109.913 98.5953 112.251 94.4978 113.081 90.8728C113.993 86.9128 114.798 83.0403 116.216 79.3328L127.818 79.3728C128.255 79.3728 128.674 79.1993 128.983 78.8903C129.292 78.5813 129.466 78.1623 129.466 77.7253V58.4553C129.466 58.0223 129.295 57.6068 128.99 57.2993C128.685 56.9921 128.271 56.8181 127.838 56.8153L119.938 56.7478C122.809 56.1478 125.72 55.7593 128.648 55.5853C128.708 55.5853 128.763 55.5853 128.816 55.5853C130.743 55.4578 134.121 55.4028 136.066 55.3828C133.748 56.6328 132.316 59.2878 132.566 61.6328C132.61 62.1323 132.737 62.6208 132.943 63.0778C134.923 67.4278 140.138 68.7128 144.443 67.4478C149.233 66.0503 152.753 61.6453 152.543 56.5778C155.543 57.0178 158.513 57.5761 161.453 58.2528C165.921 59.2803 170.278 60.6653 173.811 63.6853C176.891 66.3078 179.501 69.6853 180.708 73.5028C185.893 89.8253 184.298 108.04 180.751 124.32Z" fill="#2E2E2E"/>
<path d="M106.86 101.109C106.495 107.074 105.555 113.034 104.535 118.979" stroke="#234C79" stroke-width="1.0125" stroke-miterlimit="10"/>
<path d="M116.345 79.3341C114.925 83.0416 114.123 86.9141 113.21 90.8741C112.373 94.4866 110.04 98.5966 106.86 101.109C104.19 103.217 100.92 104.209 97.4203 102.879C92.7253 101.089 91.0778 95.9141 90.5028 91.3516C89.7556 85.6703 89.71 79.9188 90.3678 74.2266C91.0303 75.6991 93.7378 80.1791 102.135 79.0016C102.361 79.1701 102.632 79.2668 102.913 79.2791L116.345 79.3341Z" fill="#2E2E2E"/>
<path d="M111.63 66.516C113.585 66.016 114.775 67.896 114.485 69.326C114.013 71.6585 110.658 72.576 108.66 72.6185C107.06 72.651 103.16 72.2285 101.57 72.0435" stroke="#234C79" stroke-width="1.0125" stroke-miterlimit="10"/>
<path d="M100.911 67.6709C103.329 68.3699 105.89 68.4121 108.331 67.7934C110.383 67.2659 112.808 66.2934 113.883 64.3409C114.511 63.2059 114.011 61.3959 112.701 60.9959C111.188 60.5384 109.788 62.0434 108.418 62.4234C107.534 62.6641 106.632 62.8314 105.721 62.9234C105.471 62.9509 105.236 62.9709 104.993 62.9909C103.717 63.0931 102.435 63.0839 101.161 62.9634C101.025 62.9634 100.893 62.9206 100.783 62.8414C100.673 62.7619 100.591 62.6499 100.548 62.5211C100.506 62.3926 100.505 62.2536 100.546 62.1244C100.586 61.9951 100.667 61.8819 100.776 61.8009L101.006 61.6334" stroke="#234C79" stroke-width="1.0125" stroke-miterlimit="10"/>
<path d="M116.347 79.3338C114.927 83.0413 114.125 86.9138 113.212 90.8738C111.672 97.5213 105.105 105.804 97.4221 102.874C92.7271 101.084 91.0796 95.9088 90.5046 91.3463C89.6046 84.2813 89.6796 77.0238 91.0046 70.0188C92.1046 64.2488 94.0571 58.1888 99.6721 55.3513L102.307 54.0338C102.936 53.7163 103.663 53.6573 104.335 53.8693C105.006 54.0815 105.568 54.548 105.9 55.1688C106.102 55.5548 106.209 55.9833 106.212 56.4188C106.215 56.4825 106.21 56.5463 106.197 56.6088" stroke="#234C79" stroke-width="1.0125" stroke-miterlimit="10"/>
<path d="M169.867 133.564C171.225 133.522 172.583 133.556 173.937 133.667C175.042 133.757 176.187 133.809 177.24 134.222C178.107 134.567 179.012 135.389 178.967 136.394C178.885 138.364 176.305 138.349 174.89 138.349" stroke="#234C79" stroke-width="1.0125" stroke-miterlimit="10"/>
<path opacity="0.54" d="M145.586 131.686L157.351 101.544C157.496 100.96 157.507 100.35 157.381 99.7612C157.256 99.1722 156.997 98.6199 156.626 98.1459C156.255 97.6719 155.78 97.2889 155.239 97.0259C154.697 96.7632 154.103 96.6272 153.501 96.6289H106.781C105.733 96.6312 104.718 96.9857 103.896 97.6349C103.075 98.2842 102.495 99.1907 102.251 100.209L89.3557 130.344C89.216 130.926 89.2097 131.531 89.3377 132.116C89.466 132.7 89.725 133.248 90.0952 133.718C90.4655 134.188 90.9377 134.568 91.476 134.829C92.0142 135.09 92.605 135.226 93.2032 135.226H141.053C142.095 135.226 143.107 134.877 143.928 134.236C144.749 133.594 145.333 132.697 145.586 131.686Z" fill="white"/>
<path d="M145.586 131.686L157.351 101.544C157.496 100.96 157.507 100.35 157.381 99.7612C157.256 99.1722 156.997 98.6199 156.626 98.1459C156.255 97.6719 155.78 97.2889 155.239 97.0259C154.697 96.7632 154.103 96.6272 153.501 96.6289H106.781C105.733 96.6312 104.718 96.9857 103.896 97.6349C103.075 98.2842 102.495 99.1907 102.251 100.209L89.3557 130.344C89.216 130.926 89.2097 131.531 89.3377 132.116C89.466 132.7 89.725 133.248 90.0952 133.718C90.4655 134.188 90.9377 134.568 91.476 134.829C92.0142 135.09 92.605 135.226 93.2032 135.226H141.053C142.095 135.226 143.107 134.877 143.928 134.236C144.749 133.594 145.333 132.697 145.586 131.686Z" fill="#A2CCCD"/>
<path d="M145.586 131.686L157.351 101.544C157.496 100.96 157.507 100.35 157.381 99.7612C157.256 99.1722 156.997 98.6199 156.626 98.1459C156.255 97.6719 155.78 97.2889 155.239 97.0259C154.697 96.7632 154.103 96.6272 153.501 96.6289H106.781C105.733 96.6312 104.718 96.9857 103.896 97.6349C103.075 98.2842 102.495 99.1907 102.251 100.209L89.3557 130.344C89.216 130.926 89.2097 131.531 89.3377 132.116C89.466 132.7 89.725 133.248 90.0952 133.718C90.4655 134.188 90.9377 134.568 91.476 134.829C92.0142 135.09 92.605 135.226 93.2032 135.226H141.053C142.095 135.226 143.107 134.877 143.928 134.236C144.749 133.594 145.333 132.697 145.586 131.686Z" stroke="#234C79" stroke-width="1.0125" stroke-linecap="square" stroke-linejoin="round"/>
<path d="M143.861 130.467L154.716 102.66C154.85 102.122 154.86 101.56 154.745 101.017C154.63 100.475 154.393 99.9653 154.051 99.528C153.709 99.091 153.273 98.7372 152.774 98.4942C152.275 98.251 151.728 98.1248 151.173 98.125H108.061C107.093 98.1248 106.153 98.4502 105.393 99.0495C104.633 99.6487 104.096 100.486 103.871 101.427L91.9981 129.23C91.8701 129.766 91.8654 130.325 91.9841 130.863C92.1026 131.402 92.3419 131.907 92.6834 132.34C93.0249 132.773 93.4601 133.123 93.9564 133.363C94.4524 133.604 94.9966 133.729 95.5481 133.73H139.681C140.642 133.731 141.575 133.41 142.333 132.819C143.09 132.228 143.628 131.4 143.861 130.467Z" fill="#A2CCCD"/>
<path d="M111.171 103.25C111.744 102.393 112.671 102 113.261 102.398C113.851 102.795 113.851 103.795 113.281 104.648C113.191 104.779 113.091 104.903 112.981 105.018L117.216 113.96C117.891 113.51 118.634 113.398 119.169 113.753C119.34 113.878 119.482 114.039 119.585 114.225C119.688 114.41 119.749 114.616 119.764 114.828L122.659 113.853L125.189 113L126.014 112.73C126.118 112.42 126.263 112.124 126.444 111.85C127.246 110.643 128.559 110.1 129.376 110.65C130.194 111.2 130.204 112.588 129.424 113.785L134.249 120.373C135.301 119.51 136.539 119.243 137.396 119.813C138.564 120.59 138.581 122.618 137.436 124.338C137.389 124.408 137.336 124.463 137.289 124.528L140.499 128.918L140.529 128.96C140.693 129.208 140.752 129.511 140.693 129.802C140.634 130.093 140.462 130.349 140.214 130.513C139.966 130.677 139.664 130.736 139.372 130.677C139.081 130.618 138.825 130.446 138.661 130.198L135.811 125.895C134.909 126.418 133.949 126.518 133.246 126.05C132.131 125.3 132.076 123.43 133.071 121.763L128.454 114.793C127.771 115.255 127.019 115.373 126.479 115.015C126.179 114.802 125.974 114.48 125.909 114.118L125.564 114.213L122.991 114.915L119.696 115.805C119.594 116.2 119.424 116.575 119.196 116.913C118.394 118.118 117.081 118.663 116.264 118.113C115.446 117.563 115.434 116.15 116.236 114.943C116.354 114.766 116.486 114.598 116.631 114.443L112.599 105.333C112.114 105.665 111.576 105.75 111.191 105.493C110.611 105.108 110.601 104.098 111.171 103.25Z" fill="#D7E8F0"/>
<path d="M141.852 103.73H148.102C148.387 103.729 148.667 103.646 148.906 103.49C149.145 103.333 149.334 103.111 149.449 102.85C149.483 102.771 149.502 102.686 149.504 102.6C149.503 102.429 149.435 102.266 149.314 102.145C149.193 102.025 149.03 101.957 148.859 101.957H142.217C142.529 102.48 142.372 103.212 141.852 103.73Z" fill="#D7E8F0"/>
<path d="M137.812 103.089C137.813 103.258 137.881 103.421 138.001 103.541C138.122 103.661 138.285 103.729 138.455 103.729H141.853C142.373 103.211 142.53 102.479 142.217 101.951H139.217C138.932 101.951 138.653 102.034 138.413 102.19C138.174 102.345 137.985 102.567 137.87 102.829C137.833 102.91 137.814 102.999 137.812 103.089Z" fill="#A2CCCD"/>
<path d="M139.371 103.729C139.39 103.764 139.41 103.796 139.434 103.827C139.879 104.437 140.846 104.494 141.596 103.947C141.685 103.881 141.769 103.808 141.846 103.729C142.366 103.212 142.524 102.479 142.211 101.952C142.195 101.917 142.175 101.885 142.151 101.854C141.709 101.242 140.741 101.189 139.991 101.732C139.903 101.799 139.819 101.872 139.741 101.952C139.221 102.472 139.064 103.199 139.371 103.729Z" fill="white"/>
<path d="M136.25 107.012C136.251 107.183 136.32 107.345 136.441 107.465C136.562 107.585 136.725 107.652 136.895 107.652H143.453C143.135 107.122 143.293 106.402 143.813 105.875H137.645C137.359 105.875 137.079 105.959 136.84 106.115C136.6 106.271 136.411 106.493 136.295 106.755C136.264 106.837 136.248 106.924 136.25 107.012Z" fill="#A2CCCD"/>
<path d="M143.445 107.65H146.53C146.815 107.65 147.094 107.568 147.333 107.412C147.572 107.257 147.761 107.036 147.877 106.775C147.913 106.697 147.932 106.612 147.935 106.525C147.935 106.441 147.919 106.357 147.887 106.279C147.854 106.201 147.807 106.13 147.747 106.07C147.688 106.011 147.617 105.963 147.539 105.931C147.461 105.899 147.377 105.883 147.292 105.883H143.805C143.285 106.393 143.127 107.12 143.445 107.65Z" fill="#D7E8F0"/>
<path d="M143.441 107.651C143.456 107.686 143.474 107.719 143.496 107.749C143.939 108.361 144.906 108.416 145.656 107.871C145.745 107.804 145.828 107.731 145.906 107.651C146.421 107.131 146.579 106.401 146.271 105.874C146.253 105.84 146.233 105.808 146.211 105.776C145.764 105.166 144.796 105.111 144.046 105.659C143.957 105.724 143.874 105.796 143.796 105.874C143.281 106.394 143.124 107.121 143.441 107.651Z" fill="white"/>
<path d="M141.25 111.546H145.175C145.461 111.546 145.74 111.463 145.98 111.307C146.219 111.152 146.409 110.93 146.525 110.669C146.559 110.59 146.578 110.505 146.58 110.419C146.58 110.248 146.512 110.083 146.391 109.962C146.27 109.841 146.106 109.772 145.935 109.771H141.622C141.932 110.299 141.772 111.026 141.25 111.546Z" fill="#A2CCCD"/>
<path d="M134.895 110.908C134.895 110.992 134.912 111.075 134.944 111.153C134.977 111.23 135.024 111.301 135.084 111.36C135.144 111.419 135.214 111.466 135.292 111.498C135.37 111.53 135.453 111.546 135.537 111.546H141.25C141.765 111.026 141.925 110.296 141.615 109.766H136.3C136.013 109.765 135.733 109.849 135.494 110.006C135.255 110.162 135.066 110.386 134.952 110.648C134.915 110.73 134.896 110.819 134.895 110.908Z" fill="#D7E8F0"/>
<path d="M138.781 111.546C138.799 111.58 138.82 111.612 138.843 111.643C139.286 112.256 140.251 112.308 141.003 111.763C141.092 111.697 141.176 111.625 141.253 111.546C141.768 111.026 141.928 110.296 141.618 109.766C141.602 109.731 141.582 109.698 141.558 109.668C141.111 109.061 140.146 109.008 139.393 109.551C139.305 109.616 139.221 109.688 139.143 109.766C138.628 110.286 138.468 111.018 138.781 111.546Z" fill="white"/>
<path d="M115.879 129.917H119.806C120.092 129.917 120.371 129.833 120.61 129.678C120.849 129.522 121.038 129.3 121.154 129.04C121.188 128.961 121.207 128.876 121.209 128.79C121.209 128.619 121.141 128.455 121.02 128.334C120.899 128.213 120.735 128.145 120.564 128.145H116.251C116.554 128.67 116.394 129.397 115.879 129.917Z" fill="#A2CCCD"/>
<path d="M100.293 129.279C100.293 129.363 100.31 129.446 100.343 129.523C100.375 129.601 100.422 129.671 100.482 129.73C100.542 129.79 100.612 129.836 100.69 129.868C100.768 129.9 100.851 129.916 100.935 129.916H115.878C116.393 129.396 116.553 128.666 116.243 128.139H101.698C101.412 128.138 101.132 128.221 100.893 128.378C100.654 128.534 100.465 128.757 100.35 129.019C100.315 129.101 100.295 129.189 100.293 129.279Z" fill="#D7E8F0"/>
<path d="M113.401 129.916C113.419 129.95 113.44 129.983 113.464 130.014C113.906 130.626 114.871 130.679 115.624 130.136C115.712 130.069 115.795 129.995 115.874 129.916C116.389 129.396 116.549 128.666 116.239 128.139C116.222 128.104 116.202 128.071 116.179 128.041C115.731 127.431 114.766 127.379 114.014 127.921C113.925 127.987 113.841 128.06 113.764 128.139C113.251 128.656 113.089 129.389 113.401 129.916Z" fill="white"/>
<path d="M17.0472 139.544C17.0472 139.544 8.79717 176.812 30.0196 184.597C51.2421 192.382 108.57 185.069 84.7446 158.179C60.9196 131.289 17.0472 139.544 17.0472 139.544Z" fill="#2E2E2E"/>
<path d="M120.02 56.7489C122.904 56.1472 125.828 55.7572 128.77 55.5814C128.832 55.5814 128.885 55.5814 128.94 55.5814C130.872 55.4539 134.257 55.3989 136.19 55.3789" stroke="#234C79" stroke-width="1.0125" stroke-miterlimit="10"/>
<path d="M105.724 62.918C105.704 62.9305 105.692 62.9455 105.672 62.958" stroke="#234C79" stroke-width="1.0125" stroke-miterlimit="10"/>
<path d="M138.613 47.2497C137.138 48.0247 135.443 47.4997 134.793 46.1797" stroke="#234C79" stroke-width="1.0125" stroke-miterlimit="10"/>
<path d="M130.048 28.4112C129.982 29.5582 130.276 30.6972 130.89 31.6682C131.504 32.6395 132.406 33.394 133.471 33.8262C133.696 33.413 134.019 33.0612 134.411 32.8012C136.068 31.7287 135.773 34.5937 140.273 33.8387C146.511 32.7862 148.101 34.9587 148.101 34.9587C148.238 35.1487 147.851 36.3887 147.796 36.6162C147.546 37.9487 147.296 39.2737 147.068 40.6162C146.922 41.4295 146.773 42.2377 146.623 43.0412C146.737 42.9312 146.857 42.8285 146.983 42.7337C148.008 41.1337 149.511 39.3387 151.148 40.8037C151.477 41.1087 151.729 41.4875 151.883 41.9087C152.633 43.9462 151.198 45.2562 149.521 46.0412C149.078 46.309 148.608 46.5277 148.118 46.6937C148.201 47.2087 148.543 49.2612 148.543 49.2662C148.578 49.4762 152.743 46.9087 153.091 46.5962C153.719 45.766 154.203 44.8365 154.523 43.8462C155.818 39.7612 155.598 34.4812 152.991 31.1212C152.343 30.2887 152.776 29.8087 152.963 28.9987C152.972 28.955 152.968 28.9097 152.951 28.8687C152.934 28.8275 152.905 28.7925 152.868 28.768C152.831 28.7435 152.787 28.7307 152.743 28.7312C152.698 28.732 152.655 28.7457 152.618 28.7712C151.213 29.6537 148.671 28.7512 148.671 28.7512C140.421 23.7961 136.193 26.8612 134.171 27.0162C133.351 27.0725 132.536 26.8407 131.868 26.3612C131.751 26.5932 131.572 26.7887 131.352 26.927C131.132 27.0652 130.878 27.141 130.618 27.1462L130.538 27.5762C130.477 27.903 130.304 28.1982 130.048 28.4112Z" fill="#A2CCCD"/>
<path d="M133.479 33.8363C132.414 33.4043 131.512 32.6498 130.898 31.6785C130.284 30.7073 129.99 29.5683 130.056 28.4213C130.081 27.9808 130.144 27.5433 130.246 27.1138L130.319 27.1288C130.417 27.151 130.518 27.1585 130.619 27.1513C130.879 27.1463 131.132 27.0705 131.353 26.9323C131.573 26.794 131.751 26.5983 131.869 26.3663C131.938 26.2373 131.986 26.098 132.011 25.9538L132.396 23.8613C132.396 23.8613 133.646 25.5538 135.646 25.3963C137.646 25.2388 141.874 22.1738 150.146 27.1313C150.146 27.1313 152.131 27.8638 153.536 26.9813C153.573 26.956 153.616 26.942 153.66 26.9415C153.705 26.941 153.749 26.9538 153.786 26.9783C153.823 27.0028 153.852 27.0378 153.869 27.0788C153.886 27.12 153.89 27.1653 153.881 27.2088C153.694 28.0163 153.819 28.6688 154.466 29.5013C157.074 32.8613 157.294 38.1413 155.999 42.2263C155.432 43.9193 154.425 45.4308 153.081 46.6063C152.734 46.9188 148.569 49.4863 148.534 49.2763C148.534 49.2763 148.191 47.2188 148.109 46.7038L148.089 46.5863L148.206 46.5513C148.652 46.4135 149.088 46.2465 149.511 46.0513C151.189 45.2663 152.631 43.9563 151.874 41.9188C151.719 41.4978 151.467 41.119 151.139 40.8138C149.501 39.3488 147.999 41.1438 146.974 42.7438C146.775 43.0475 146.613 43.373 146.489 43.7138C146.529 43.4938 146.569 43.2788 146.611 43.0588C146.761 42.2538 146.909 41.4455 147.056 40.6338C147.306 39.2988 147.539 37.9738 147.784 36.6338C147.829 36.4063 148.226 35.1663 148.089 34.9763C148.089 34.9763 146.499 32.8038 140.261 33.8563C135.761 34.6063 136.056 31.7463 134.399 32.8188C134.006 33.0788 133.684 33.4308 133.459 33.8438C133.389 33.9785 133.327 34.117 133.274 34.2588C133.265 34.2765 133.257 34.295 133.251 34.3138C133.139 34.6238 133.036 34.9363 132.936 35.2413C132.001 38.2138 131.384 41.4238 131.714 44.5463C132.116 48.3313 134.874 52.7813 139.261 52.4038C140.642 52.242 141.988 51.864 143.251 51.2838" stroke="#234C79" stroke-width="1.0125" stroke-miterlimit="10"/>
<path d="M133.957 41.903C134.386 41.8907 134.722 41.4602 134.707 40.9412C134.693 40.4222 134.333 40.0115 133.904 40.0237C133.474 40.0357 133.138 40.4662 133.153 40.9852C133.168 41.5042 133.527 41.915 133.957 41.903Z" fill="#234C79"/>
<path d="M139.832 43.4811C140.261 43.4688 140.597 43.0383 140.582 42.5196C140.568 42.0006 140.208 41.5896 139.779 41.6018C139.349 41.6141 139.013 42.0446 139.028 42.5633C139.043 43.0823 139.402 43.4933 139.832 43.4811Z" fill="#234C79"/>
<path d="M137.298 43.8277C137.298 43.8277 135.025 44.3277 135.255 43.1627C135.325 42.7977 135.895 39.2127 135.895 39.2127C135.895 39.2127 134.835 37.0777 132.062 37.5752" stroke="#234C79" stroke-width="1.0125" stroke-miterlimit="10"/>
<path d="M138.316 38.8945C138.316 38.8945 141.919 38.282 143.299 41.1595" stroke="#234C79" stroke-width="1.0125" stroke-miterlimit="10"/>
<path d="M136.229 55.3477C133.391 56.8477 131.876 60.4577 133.064 63.0702C135.044 67.4227 140.256 68.7027 144.564 67.4452C149.354 66.0452 152.874 61.6302 152.664 56.5677" stroke="#234C79" stroke-width="1.0125" stroke-miterlimit="10"/>
<path d="M153.413 138.347C161.64 119.227 164.628 85.4792 164.628 85.4792V132.564C164.627 133.324 164.777 134.076 165.067 134.777C165.358 135.479 165.783 136.117 166.32 136.654C166.857 137.191 167.495 137.617 168.197 137.907C168.898 138.198 169.651 138.347 170.41 138.347H188.66C189.344 138.357 190.008 138.115 190.525 137.666C191.041 137.217 191.373 136.593 191.458 135.914C191.494 135.54 191.452 135.162 191.334 134.806C191.216 134.449 191.024 134.121 190.771 133.843C190.519 133.564 190.21 133.342 189.867 133.191C189.523 133.039 189.151 132.961 188.775 132.962H181.3C181.002 132.961 180.708 132.892 180.441 132.76C180.173 132.628 179.94 132.437 179.757 132.201C179.575 131.965 179.449 131.691 179.389 131.399C179.329 131.107 179.336 130.805 179.41 130.517C183.91 112.767 186.693 91.9317 180.835 73.4942C179.625 69.6892 177.017 66.2992 173.938 63.6792C170.402 60.6592 166.045 59.2742 161.58 58.2492C158.635 57.5742 155.664 57.0157 152.667 56.5742C152.658 56.5772 152.649 56.5772 152.64 56.5742C152.62 56.5742 152.6 56.5742 152.588 56.5742H152.568H152.54H152.5" stroke="#234C79" stroke-width="1.0125" stroke-miterlimit="10"/>
<path d="M150.779 48.0781L150.449 54.0506C150.417 54.6344 150.601 55.2094 150.964 55.6671C151.327 56.1249 151.846 56.4339 152.421 56.5356H152.496C152.509 56.5321 152.523 56.5321 152.536 56.5356H152.549H152.584" stroke="#234C79" stroke-width="1.0125" stroke-miterlimit="10"/>
<path d="M152.636 56.563H152.584H152.564H152.549H152.536H152.496H152.421C151.846 56.4612 151.327 56.1522 150.964 55.6945C150.601 55.2365 150.417 54.6615 150.449 54.078L150.779 48.1055" stroke="#234C79" stroke-width="1.0125" stroke-miterlimit="10"/>
<path d="M136.705 52.0317C136.543 51.9667 136.705 58.7017 132.688 61.6267" stroke="#234C79" stroke-width="1.0125" stroke-miterlimit="10"/>
<path d="M82.9169 138.348H70.0469" stroke="#234C79" stroke-width="1.0125" stroke-miterlimit="10"/>
<path d="M208.648 138.348H102.953" stroke="#234C79" stroke-width="1.0125" stroke-miterlimit="10"/>
<path d="M45.6882 75.1161C45.8122 77.6376 45.7219 80.1651 45.4182 82.6711C45.0282 85.6161 42.3057 89.3586 41.7157 92.2711C40.8732 96.4611 42.1482 100.791 43.8982 104.681C46.0132 109.384 49.3457 114.114 49.0207 119.499C48.8542 121.844 48.1564 124.121 46.9799 126.156C45.8037 128.192 44.1794 129.933 42.2307 131.249C39.5614 133.035 36.5122 134.173 33.3257 134.574C32.8807 134.626 32.4282 134.669 31.9757 134.681C31.7257 134.681 31.4757 134.654 31.2257 134.634C22.7507 133.916 14.0582 127.451 14.0782 118.451C14.0782 112.701 18.4481 108.201 19.1856 102.621C19.6381 99.2086 18.6382 95.6636 19.5632 92.3511C21.0632 87.0611 26.8607 84.1761 29.4007 79.3061C31.2707 75.7111 31.5757 71.5161 33.0557 67.7461C35.1157 62.4961 38.4057 56.4961 42.9057 55.9961C44.2114 56.1441 45.4737 56.5558 46.6157 57.2061C49.4057 58.7061 50.1157 58.8011 50.6832 60.1386C51.2632 61.5361 50.3982 63.0286 48.9532 63.4761C46.5132 64.2486 45.4607 69.2061 45.6882 75.1161Z" fill="#A2CCCD"/>
<path d="M48.1406 58.0185C55.4656 55.896 60.1206 59.0185 63.4506 62.6185C66.7806 66.2185 66.6256 70.306 66.6256 70.306" stroke="#234C79" stroke-width="1.0125" stroke-miterlimit="10"/>
<path d="M70.8578 128.43C70.7473 134.152 70.0223 139.847 68.6953 145.415" stroke="#234C79" stroke-width="1.0125" stroke-miterlimit="10"/>
<path d="M89.0604 175.034C86.3779 179.649 80.0154 182.926 72.2304 184.966C58.4154 188.586 40.1254 188.304 30.0204 184.594C8.78534 176.811 17.0403 139.544 17.0403 139.544C17.0403 139.544 53.7679 132.631 78.2579 152.044C80.5974 153.893 82.7691 155.945 84.7479 158.176C87.4554 161.239 89.1179 164.041 89.9029 166.601C90.8654 169.791 90.4804 172.601 89.0604 175.034Z" stroke="#234C79" stroke-width="1.0125" stroke-miterlimit="10"/>
<path d="M74.9857 184.336C74.9857 184.336 62.1182 220.053 83.7357 229.176C105.353 238.298 4.3507 239.513 26.6457 229.176C48.9407 218.838 36.1257 186.518 36.1257 186.518" stroke="#234C79" stroke-width="1.0125" stroke-miterlimit="10"/>
<path d="M101.161 62.9577C100.893 62.1402 101.003 59.2977 101.091 57.6927C101.107 57.3897 101.242 57.105 101.465 56.8992C101.688 56.6935 101.982 56.5825 102.286 56.5902L127.968 56.8152C128.401 56.8192 128.815 56.994 129.12 57.3015C129.425 57.6092 129.596 58.0247 129.596 58.4577V77.7302C129.596 77.9465 129.553 78.1607 129.47 78.3605C129.387 78.5602 129.265 78.7417 129.112 78.8942C128.959 79.047 128.777 79.1677 128.576 79.2497C128.376 79.332 128.162 79.3737 127.946 79.3727L102.918 79.2802C102.556 79.2652 102.213 79.1107 101.962 78.849C101.71 78.587 101.57 78.238 101.571 77.8752V76.4052C103.351 77.2352 106.716 77.4902 106.716 77.4902C107.913 77.4577 109.806 77.3127 110.843 76.7177C111.793 76.1727 112.993 75.3902 113.156 74.2052C113.218 73.747 113.097 73.2825 112.818 72.9132C112.54 72.544 112.126 72.3002 111.668 72.2352C111.393 72.1802 111.108 72.2002 110.843 72.2927" stroke="#234C79" stroke-width="1.0125" stroke-miterlimit="10"/>
<path d="M126.223 116.363C126.211 116.707 126.095 117.039 125.891 117.316C125.303 118.038 124.141 117.896 123.351 117.673C120.028 116.728 118.033 120.328 116.778 122.753C113.608 128.883 108.853 134.578 102.921 138.348C102.536 138.598 102.143 138.833 101.746 139.063C95.9481 142.408 88.4356 141.786 82.8281 138.313L89.9981 120.701L90.7081 121.268C95.0381 124.686 100.368 122.768 104.058 119.396C105.082 118.463 105.986 117.405 106.748 116.248C108.018 114.296 109.106 112.188 110.843 110.601C113.248 108.403 116.768 107.973 119.808 108.903C122.848 109.833 126.498 112.823 126.223 116.363Z" fill="white"/>
<path d="M126.194 115.115C126.194 115.115 125.379 110.8 118.031 114.168" stroke="#234C79" stroke-width="1.0125" stroke-miterlimit="10"/>
<path d="M122.107 109.937C122.107 109.937 117.527 108.472 114.977 111.972" stroke="#234C79" stroke-width="1.0125" stroke-miterlimit="10"/>
<path d="M29.6551 134.643C30.8778 134.752 32.1088 134.732 33.3276 134.583C36.5133 134.177 39.5608 133.036 42.2301 131.25C44.1788 129.935 45.8028 128.194 46.9793 126.158C48.1556 124.122 48.8536 121.846 49.0201 119.5C49.3451 114.113 46.0201 109.383 43.8976 104.68C42.1476 100.788 40.8726 96.4579 41.7176 92.2729C42.3051 89.3579 45.0226 85.6176 45.4151 82.6701C45.7203 80.1641 45.8123 77.6369 45.6901 75.1151C45.4626 69.2026 46.5126 64.2404 48.9526 63.4854C50.3976 63.0379 51.2651 61.5429 50.6826 60.1479C50.1251 58.8079 49.4076 58.7279 46.6151 57.2104C39.3351 53.2504 34.2726 60.6329 31.4776 67.7504C29.9951 71.5229 29.6951 75.7129 27.8226 79.3079C25.2826 84.1804 19.4725 87.0579 17.9875 92.3579C17.06 95.6679 18.06 99.2154 17.61 102.623C16.875 108.2 12.5125 112.698 12.5 118.453C12.48 127.45 21.1825 133.92 29.6551 134.643Z" stroke="#234C79" stroke-width="1.0125" stroke-miterlimit="10"/>
<path d="M89.0634 175.035C88.4359 179.5 87.5009 184.623 86.4709 189.75C83.5509 204.283 79.8359 218.903 79.8359 218.903" stroke="#234C79" stroke-width="1.0125" stroke-miterlimit="10"/>
<path d="M89.8942 166.601C89.9067 166.056 89.9142 165.556 89.8942 165.081C89.6717 154.831 82.3017 152.381 79.1317 151.794C78.6587 151.701 78.1802 151.64 77.6992 151.611" stroke="#234C79" stroke-width="1.0125" stroke-miterlimit="10"/>
<path d="M80.9361 214.47C81.3441 214.22 81.8113 214.084 82.2896 214.075C82.7678 214.065 83.2401 214.184 83.6573 214.418C84.0746 214.652 84.4218 214.993 84.6633 215.406C84.9048 215.819 85.0318 216.289 85.0311 216.768C85.0311 216.803 85.0311 216.845 85.0311 216.895C84.9911 218.13 84.6658 219.338 84.0808 220.426C83.4956 221.514 82.6666 222.451 81.6586 223.165L78.1836 225.638" stroke="#234C79" stroke-width="1.0125" stroke-miterlimit="10"/>
<path d="M41.4609 95.5762C41.9459 95.3787 42.4409 95.2037 42.9409 95.0412C43.9934 93.0962 43.8309 88.8387 43.7309 87.2912L44.7834 84.9187C47.6884 86.7037 51.5334 86.0337 55.1009 84.7912C55.6019 84.6162 56.0892 84.404 56.5584 84.1562C58.8234 83.1162 61.9984 80.6562 60.5734 79.3862C59.1484 78.1162 59.2484 75.6712 60.1609 74.1712C60.4384 73.7112 60.9309 73.2587 61.4434 73.4012C61.7884 73.4962 62.0109 73.8187 62.2084 74.1162C62.4584 74.4887 62.7084 74.8462 62.9584 75.2112C63.0459 75.3337 63.1884 75.4612 63.3234 75.4062C63.3807 75.3687 63.4249 75.3147 63.4509 75.2512C63.8909 74.3462 63.8084 73.0487 63.8834 72.0562C63.9709 70.8737 64.0384 69.6837 64.0734 68.4962C64.0934 67.8412 64.2284 67.1387 64.9309 66.9087C65.0727 66.8542 65.2252 66.8325 65.3767 66.8455C65.5279 66.8585 65.6744 66.9057 65.8049 66.9837C65.9352 67.062 66.0462 67.1687 66.1289 67.296C66.2119 67.4235 66.2647 67.568 66.2834 67.7187C66.7947 70.592 66.8697 73.5257 66.5059 76.4212C66.1609 79.4537 65.5384 82.6712 63.5934 85.1162C62.4854 86.5267 61.0007 87.5945 59.3109 88.1962C57.6759 88.7637 57.7284 90.7362 57.7284 92.4662V95.3387C62.7559 96.3587 67.4784 97.5887 71.3834 101.089C73.9659 103.45 76.3959 105.972 78.6584 108.641C85.7809 116.999 87.3209 118.566 90.7509 121.269C95.0809 124.686 100.413 122.769 104.101 119.396C105.123 118.463 106.025 117.405 106.786 116.249C108.056 114.296 109.143 112.189 110.878 110.601C113.286 108.404 116.806 107.974 119.846 108.904C122.886 109.834 126.541 112.824 126.251 116.364C126.239 116.707 126.124 117.039 125.921 117.316C125.333 118.039 124.171 117.896 123.381 117.674C120.056 116.729 118.063 120.329 116.806 122.754C113.638 128.884 108.881 134.579 102.948 138.349C102.563 138.599 102.173 138.834 101.773 139.064C95.1459 142.889 86.2609 141.524 80.5609 136.651L66.8109 124.979" stroke="#234C79" stroke-width="1.0125" stroke-miterlimit="10"/>
<path d="M42.9414 95.0409C42.9414 95.0409 49.5089 93.0109 57.7289 95.3459" stroke="#234C79" stroke-width="1.0125" stroke-miterlimit="10"/>
<path d="M101.57 76.4043C101.57 76.4043 101.62 84.9043 103.648 88.1768" stroke="#234C79" stroke-width="1.0125" stroke-miterlimit="10"/>
<path d="M108.233 37.498C106.673 40.1605 106.745 42.0505 107.15 45.118C107.184 45.3793 107.143 45.6445 107.032 45.8835C106.921 46.1225 106.745 46.3253 106.524 46.4685C106.303 46.6118 106.046 46.6895 105.782 46.693C105.519 46.6963 105.26 46.6253 105.035 46.488C96.0355 41.308 87.613 45.4055 76.868 42.868C72.923 41.9405 68.0055 40.023 64.633 36.9355C63.5142 35.2738 62.917 33.316 62.918 31.313C62.918 22.9155 74.3905 16.1055 88.5355 16.1055C97.603 16.1055 105.568 18.903 110.123 23.118C110.123 23.118 110.123 23.118 110.135 23.133C111.278 24.776 111.902 26.7243 111.925 28.7255C111.925 31.748 109.685 34.998 108.233 37.498Z" fill="#D7E8F0"/>
<path d="M111.884 28.7318V28.9443C111.832 31.8868 110.359 34.6218 108.612 36.9893C107.442 38.5743 106.054 40.3318 106.384 42.2743C106.529 43.1293 107.007 43.9068 107.134 44.7743C107.262 45.6418 106.797 46.7043 105.929 46.7493C105.379 46.7768 104.909 46.3843 104.474 46.0468C101.892 44.0468 98.5369 43.2968 95.2744 43.1668C92.0119 43.0368 88.7544 43.4643 85.4894 43.5568C80.7844 43.6918 76.0044 43.1043 71.6569 41.3068C67.7494 39.6768 64.1869 37.0268 61.8419 33.4993C59.5394 30.0218 60.9019 24.9767 63.3569 21.9542C65.6619 19.1192 68.9969 17.3042 72.4194 16.0267C81.6219 12.5892 92.1269 12.6717 101.204 16.4342C103.899 17.5392 106.499 18.9992 108.524 21.1042C110.499 23.1567 111.867 25.8918 111.884 28.7318Z" stroke="#234C79" stroke-width="1.0125" stroke-miterlimit="10"/>
<path d="M74.1209 32.0778C76.0732 32.0778 77.6559 30.4953 77.6559 28.5428C77.6559 26.5906 76.0732 25.0078 74.1209 25.0078C72.1687 25.0078 70.5859 26.5906 70.5859 28.5428C70.5859 30.4953 72.1687 32.0778 74.1209 32.0778Z" fill="white"/>
<path d="M85.5506 32.0778C87.5029 32.0778 89.0856 30.4953 89.0856 28.5428C89.0856 26.5906 87.5029 25.0078 85.5506 25.0078C83.5984 25.0078 82.0156 26.5906 82.0156 28.5428C82.0156 30.4953 83.5984 32.0778 85.5506 32.0778Z" fill="white"/>
<path d="M97.203 32.0778C99.1552 32.0778 100.738 30.4953 100.738 28.5428C100.738 26.5906 99.1552 25.0078 97.203 25.0078C95.2507 25.0078 93.668 26.5906 93.668 28.5428C93.668 30.4953 95.2507 32.0778 97.203 32.0778Z" fill="white"/>
<g opacity="0.54">
<path opacity="0.54" d="M165.133 176.749L163.695 197.499C163.038 198.752 162.216 199.911 161.253 200.947C161.148 200.909 161.043 200.869 160.94 200.822C160.748 200.757 160.558 200.679 160.378 200.604C157.465 199.327 155.252 196.947 154.607 194.249C154.025 191.887 154.55 189.334 153.425 187.114C152.053 184.379 148.32 182.664 147.863 179.579C147.433 176.692 150.033 174.044 149.613 171.214C149.113 168.014 145.2 166.117 144.467 162.992C144.01 161.049 144.42 158.819 144.247 156.819C144.057 154.582 143.682 152.364 143.125 150.189C148.918 149.769 154.813 152.962 156.69 157.534C158.223 161.284 157.3 165.652 159.69 169.062C160.995 170.909 163.167 172.292 164.292 174.224C164.639 174.827 164.892 175.48 165.042 176.159C165.042 176.207 165.042 176.254 165.06 176.292C165.06 176.369 165.08 176.424 165.09 176.482C165.115 176.654 165.133 176.749 165.133 176.749Z" fill="#A2CCCD"/>
<path opacity="0.54" d="M165.143 176.73C165.143 176.73 165.125 176.645 165.105 176.48C165.122 176.546 165.135 176.613 165.143 176.68C165.146 176.688 165.148 176.697 165.148 176.705C165.148 176.714 165.146 176.722 165.143 176.73Z" fill="#A2CCCD"/>
</g>
<path d="M184.277 168.633C183.527 171.328 179.419 172.966 178.924 175.728C178.487 178.178 181.192 180.463 180.744 182.951C180.267 185.618 176.379 187.093 174.952 189.451C173.789 191.366 174.332 193.568 173.732 195.606C173.037 197.921 170.732 199.988 167.692 201.083C167.502 201.151 167.322 201.216 167.129 201.273C167.024 201.303 166.909 201.341 166.804 201.368C165.804 200.541 164.642 199.083 163.699 197.511L165.129 176.748C166.244 175.803 167.519 174.938 168.407 173.888C169.369 172.756 169.817 171.518 170.102 170.221H170.132V170.078C170.549 168.031 170.587 165.886 171.549 163.943C173.502 159.991 179.629 157.236 185.659 157.598C185.09 159.465 184.701 161.382 184.497 163.323C184.324 165.041 184.749 166.966 184.277 168.633Z" fill="#A2CCCD"/>
<path d="M170.143 170.062V170.205H170.113L170.143 170.062Z" fill="#A2CCCD"/>
<path d="M170.143 170.061L170.113 170.204C169.828 171.501 169.381 172.739 168.418 173.871C167.531 174.921 166.256 175.786 165.141 176.731C165.145 176.718 165.145 176.705 165.141 176.692C165.133 176.624 165.12 176.557 165.103 176.491C165.103 176.434 165.083 176.379 165.073 176.302C165.073 176.264 165.073 176.216 165.056 176.169C164.906 175.489 164.653 174.837 164.306 174.234C163.181 172.301 161.008 170.919 159.703 169.071C159.703 169.071 160.293 159.334 165.276 156.371C170.001 153.571 170.143 168.441 170.143 170.061Z" fill="#A2CCCD"/>
<path d="M170.143 170.062V170.205H170.113L170.143 170.062Z" fill="#A2CCCD"/>
<path d="M165.131 176.693V176.75C165.131 176.75 165.114 176.665 165.094 176.5C165.111 176.563 165.123 176.628 165.131 176.693Z" fill="#A2CCCD"/>
<path d="M164.685 176.748C165.795 175.803 167.085 174.925 167.975 173.878C170.475 170.93 169.51 167.163 171.112 163.93C173.062 159.983 179.195 157.23 185.222 157.59C184.65 159.456 184.26 161.374 184.057 163.315C183.877 165.045 184.307 166.968 183.835 168.643C183.067 171.338 178.975 172.973 178.477 175.735C178.035 178.183 180.747 180.468 180.3 182.953C179.822 185.623 175.937 187.098 174.507 189.453C173.34 191.37 173.887 193.568 173.282 195.61C172.55 198.073 170 200.248 166.677 201.275C166.572 201.31 166.457 201.348 166.35 201.375C165.35 200.548 164.187 199.09 163.242 197.515" stroke="#234C79" stroke-width="1.0125" stroke-miterlimit="10"/>
<path d="M181.54 160.684C172.553 170.356 168.325 190.749 166.68 201.279C166.545 202.166 166.43 202.979 166.32 203.711" stroke="#234C79" stroke-width="1.0125" stroke-miterlimit="10"/>
<path d="M182.371 209.641L178.249 234.039C178.151 234.707 177.819 235.319 177.313 235.766C176.807 236.213 176.159 236.466 175.484 236.481H153.864C153.182 236.466 152.528 236.207 152.02 235.752C151.512 235.296 151.183 234.675 151.094 233.999L147.281 209.639L182.371 209.641Z" stroke="#234C79" stroke-width="1.0125" stroke-miterlimit="10"/>
<path d="M186.3 206.916C186.263 207.639 185.954 208.322 185.434 208.828C184.915 209.333 184.224 209.623 183.5 209.641H146.222C145.506 209.624 144.822 209.339 144.305 208.843C143.787 208.347 143.474 207.676 143.427 206.961C143.27 205.211 144.565 203.711 146.222 203.711H183.5C185.142 203.713 186.432 205.191 186.3 206.916Z" stroke="#234C79" stroke-width="1.0125" stroke-miterlimit="10"/>
<path d="M160.807 200.941C162.407 199.354 164.367 195.814 165.235 192.924C165.95 190.541 164.692 188.089 164.402 185.644C163.952 181.816 165.852 177.701 163.85 174.231C162.732 172.296 160.56 170.921 159.255 169.069C156.852 165.656 157.775 161.291 156.24 157.549C154.362 152.971 148.47 149.779 142.68 150.204C143.233 152.38 143.608 154.597 143.802 156.834C143.975 158.834 143.552 161.064 144.017 163.004C144.75 166.129 148.68 168.021 149.162 171.224C149.587 174.054 146.985 176.704 147.412 179.586C147.872 182.676 151.6 184.384 152.977 187.124C154.097 189.346 153.572 191.896 154.152 194.256C154.88 197.206 157.457 199.799 160.807 200.941Z" stroke="#234C79" stroke-width="1.0125" stroke-miterlimit="10"/>
<path d="M146.215 153.789C154.842 164.999 158.902 188.622 160.5 200.817C160.635 201.874 160.75 202.844 160.852 203.712" stroke="#234C79" stroke-width="1.0125" stroke-miterlimit="10"/>
<path d="M159.25 169.069C159.25 169.069 159.842 159.331 164.822 156.371C169.802 153.411 169.697 169.999 169.697 169.999" stroke="#234C79" stroke-width="1.0125" stroke-miterlimit="10"/>
<path d="M164.687 176.749C164.687 176.749 163.67 171.179 165.455 165.701" stroke="#234C79" stroke-width="1.0125" stroke-miterlimit="10"/>
</svg>
