<svg width="375" height="250" viewBox="0 0 375 250" fill="none" xmlns="http://www.w3.org/2000/svg">
<g clip-path="url(#clip0_948_52626)">
<mask id="mask0_948_52626" style="mask-type:luminance" maskUnits="userSpaceOnUse" x="-11" y="0" width="231" height="250">
<path d="M219.5 0H-10.5V250H219.5V0Z" fill="white"/>
</mask>
<g mask="url(#mask0_948_52626)">
<path d="M102.289 104.464C102.289 104.464 113.177 90.9642 135.621 102.674C155.334 112.957 160.557 133.514 160.557 133.514" stroke="#429AC7" stroke-width="1.3" stroke-miterlimit="10"/>
<path d="M100.355 106.675L100.365 106.668" stroke="#429AC7" stroke-width="1.3" stroke-miterlimit="10"/>
<path d="M68.1016 127.033C72.2991 127.25 76.3678 126.755 80.1513 124.395C82.6652 122.835 85.7564 120.953 88.1898 118.543" stroke="#429AC7" stroke-width="1.3" stroke-miterlimit="10"/>
<path d="M25.3494 167C27.5691 173.903 30.4416 180.591 32.8884 186.999C34.2098 190.486 35.4867 194.176 35.4998 198.137C35.5285 204.26 32.421 209.738 28.6319 212.795C23.1167 217.241 16.5465 216.833 11.094 221.544C5.97834 225.945 3.31736 231.628 2.5 238" stroke="#429AC7" stroke-width="1.3" stroke-miterlimit="10"/>
<path d="M48.6406 125.316C48.8246 125.298 48.9994 125.281 49.1834 125.273" stroke="#429AC7" stroke-width="1.3" stroke-miterlimit="10"/>
<path d="M173.27 140.184L173.293 140.236" stroke="#429AC7" stroke-width="1.3" stroke-miterlimit="10"/>
<path d="M145.028 238.421H126.426V238.084C126.788 237.894 127.103 237.611 127.344 237.261C127.586 236.91 127.746 236.502 127.812 236.071C127.878 235.639 127.847 235.196 127.723 234.78C127.598 234.364 127.384 233.986 127.097 233.679C126.902 233.465 126.675 233.288 126.426 233.156V232.861H143.726C148.667 232.846 147.724 233.816 148.618 235.681C149.513 237.546 145.028 238.421 145.028 238.421Z" fill="#429AC7"/>
<path d="M39.8691 237.399C39.0871 238.094 37.875 238.422 37.875 238.422H27.8125V217.389L33.0887 214.864C33.1359 214.85 33.1814 214.83 33.2244 214.804L33.3992 214.717V232.862H37.2287C37.6827 232.864 38.136 232.899 38.5857 232.967C39.6069 233.149 39.8852 233.557 40.0531 234.189C40.0531 234.189 40.0692 234.189 40.0531 234.207C40.1658 234.614 40.2371 235.102 40.4303 235.682C40.6925 236.402 40.3659 236.974 39.8691 237.399Z" fill="#429AC7"/>
<path d="M103.085 200.92L97.4197 219.62C96.7079 221.738 95.4143 223.567 93.7146 224.859C92.0147 226.151 89.9905 226.845 87.9161 226.845H33.367L33.3992 229.863V230.168L33.4314 232.863V232.88L36.9573 232.863H37.8773C38.1176 232.861 38.3568 232.896 38.588 232.968C39.2009 233.161 39.7247 233.597 40.0554 234.19C40.0554 234.19 40.0715 234.19 40.0554 234.208C40.3027 234.637 40.4335 235.133 40.4326 235.64V235.683C40.4308 236.046 40.3631 236.406 40.2332 236.741C40.1035 237.076 39.9142 237.38 39.6761 237.635C39.4383 237.89 39.1561 238.092 38.8463 238.229C38.5365 238.366 38.2048 238.435 37.8704 238.433H27.8125V217.39C29.6187 216.488 31.3775 215.647 33.0887 214.865C33.1359 214.85 33.1814 214.83 33.2244 214.805L33.3992 214.728C59.1891 203.063 75.2293 204.5 75.2293 204.5L84.6455 171.41" stroke="#1C4E79" stroke-width="1.3" stroke-miterlimit="10"/>
<path d="M174.428 142.777L164.34 151.132" stroke="#1C4E79" stroke-width="1.3" stroke-miterlimit="10"/>
<path d="M140.789 201.909L146.548 199.922" stroke="#1C4E79" stroke-width="1.3" stroke-miterlimit="10"/>
<path d="M138.389 144.826C138.389 144.826 99.9993 192.149 106.86 233.634C107.32 236.306 109.367 238.396 111.865 238.421H125.166C125.605 238.421 126.038 238.305 126.426 238.084C126.789 237.893 127.104 237.611 127.345 237.26C127.586 236.91 127.746 236.502 127.812 236.07C127.878 235.638 127.847 235.196 127.723 234.78C127.599 234.364 127.384 233.986 127.098 233.679C126.903 233.464 126.676 233.288 126.426 233.156C126.07 232.96 125.676 232.859 125.276 232.861H121.136" stroke="#1C4E79" stroke-width="1.3" stroke-miterlimit="10"/>
<path d="M132.383 202.784L147.448 179.572L161.388 158.097C165.441 151.862 165.25 143.292 160.565 137.597C149.265 123.847 122.937 132.957 110.388 140.184C100.498 145.882 91.4888 154.364 86.7462 165.579C77.3162 187.904 88.485 197.297 103.076 200.974C104.985 201.452 106.956 201.834 108.934 202.137" stroke="#1C4E79" stroke-width="1.3" stroke-miterlimit="10"/>
<path d="M140.783 201.906C140.783 201.906 137.448 202.406 132.382 202.784C127.409 210.746 121.802 219.064 115.52 227.571C115.339 227.814 115.229 228.111 115.204 228.424C115.18 228.736 115.243 229.049 115.385 229.321C115.972 230.397 116.806 231.289 117.806 231.908C118.807 232.527 119.938 232.852 121.089 232.851H121.153L140.783 201.896" stroke="#1C4E79" stroke-width="1.3" stroke-miterlimit="10"/>
<path d="M147.448 179.57H158.898C167.341 179.57 171.842 190.388 166.272 197.283L137.457 232.948H145.804C146.141 232.937 146.476 232.999 146.791 233.132C147.105 233.264 147.392 233.464 147.634 233.719C147.876 233.975 148.068 234.28 148.199 234.617C148.331 234.955 148.399 235.318 148.399 235.684C148.399 236.051 148.331 236.413 148.199 236.751C148.068 237.088 147.876 237.394 147.634 237.649C147.392 237.904 147.105 238.104 146.791 238.236C146.476 238.369 146.141 238.431 145.804 238.42H117.629" stroke="#1C4E79" stroke-width="1.3" stroke-miterlimit="10"/>
<path d="M106.207 228.465C104.731 230.157 103.581 232.082 102.449 234.052C101.771 235.24 101.18 236.637 102.258 237.817C103.151 238.78 104.098 238.44 104.85 237.867C105.446 237.4 105.93 236.784 106.263 236.072L107.054 234.442" stroke="#1C4E79" stroke-width="1.3" stroke-miterlimit="10"/>
<path d="M194.764 126.126C194.534 127.801 193.313 129.508 192.036 130.056C190.702 130.618 189.179 130.056 187.981 129.396C186.442 128.571 185.014 127.496 183.577 126.491L182.643 126.048C182.645 126.042 182.645 126.036 182.643 126.031C182.337 125.894 181.996 125.888 181.686 126.013C181.613 126.033 181.543 126.062 181.477 126.101C181.344 126.171 181.223 126.265 181.118 126.378C180.953 126.549 180.823 126.755 180.736 126.983C179.933 129.198 179.355 131.502 179.011 133.853L176.817 134.166C176.825 133.947 176.859 133.731 176.92 133.523C176.922 133.52 176.922 133.517 176.922 133.514C176.922 133.511 176.922 133.508 176.92 133.506C177.079 132.916 177.302 132.368 176.92 132.153C176.893 131.795 176.781 131.45 176.594 131.153C176.364 130.833 176.003 130.668 175.444 130.773C175.244 130.809 175.049 130.869 174.862 130.953C174.372 131.164 173.93 131.491 173.569 131.908C173.418 132.075 173.28 132.255 173.155 132.446C172.968 132.725 172.814 133.028 172.695 133.348C172.653 133.451 172.618 133.558 172.592 133.668C172.387 134.335 172.398 135.057 172.624 135.716C172.664 135.829 172.711 135.94 172.767 136.046L171.035 137.668C170.975 137.726 170.911 137.778 170.844 137.826C170.007 138.426 168.666 138.426 167.477 138.096C166.759 137.896 167.051 137.486 166.582 137.096C165.92 137.321 165.892 135.961 165.936 135.796C166.255 134.843 165.059 134.046 164.94 133.948C164.494 133.853 164.215 133.698 164.07 133.463H164.39C165.052 133.463 165.986 133.621 166.591 133.403C166.232 131.788 165.706 130.931 166.888 129.543C167.87 128.373 168.22 127.293 168.019 125.676C168.019 125.581 168.5 125.641 168.5 125.538C168.818 124.538 169.441 123.603 170.048 123.288C171.131 122.716 172.728 123.191 172.889 121.701C172.997 120.514 173.448 119.396 174.178 118.506C174.908 117.616 175.879 117.001 176.95 116.748C178.547 116.366 179.678 117.788 181.044 118.326C182.703 118.993 184.418 117.961 186.157 118.663C187.02 119.011 187.586 119.663 188.161 120.413C188.639 121.056 189.11 121.716 189.541 122.391C189.971 123.066 190.371 123.676 191.075 123.971C191.995 124.361 193.092 124.101 193.915 124.776C194.332 125.107 194.631 125.583 194.764 126.126Z" fill="#429AC7"/>
<path d="M164.699 133.52L165.822 135.603C166.201 136.305 166.742 137.77 167.432 138.078H167.445H167.464C168.667 138.598 169.973 138.473 170.829 137.828C170.9 137.779 170.967 137.723 171.029 137.66L172.756 136.035C171.689 133.963 173.419 131.133 175.424 130.758C176.45 130.57 176.804 131.258 176.917 132.133C176.958 132.59 176.958 133.05 176.917 133.508C176.917 133.653 176.901 133.783 176.889 133.92" stroke="#1C4E79" stroke-width="1.3" stroke-linecap="round" stroke-linejoin="round"/>
<path d="M187.247 131.726C187.247 131.726 184.28 130.074 182.344 132.321" stroke="#1C4E79" stroke-width="1.3" stroke-miterlimit="10"/>
<path d="M184.793 140.839C185.524 141.419 186.543 142.089 187.443 141.589L187.176 137.887C187.114 136.981 187.338 136.079 187.811 135.329C188.597 134.064 190.088 132.264 189.933 130.102" stroke="#1C4E79" stroke-width="1.3" stroke-miterlimit="10"/>
<path d="M186.062 135.378C186.339 134.848 186.227 134.212 185.813 133.956C185.399 133.7 184.839 133.922 184.562 134.451C184.285 134.981 184.397 135.617 184.811 135.873C185.225 136.129 185.786 135.907 186.062 135.378Z" fill="#1C4E79"/>
<path d="M176.812 134.169C176.838 134.094 176.861 134.014 176.886 133.939C176.911 133.864 176.934 133.772 176.964 133.689" stroke="#1C4E79" stroke-width="1.3" stroke-linecap="round" stroke-linejoin="round"/>
<path d="M176.812 134.17L177.565 134.065L179.009 133.855" stroke="#1C4E79" stroke-width="1.3" stroke-linecap="round" stroke-linejoin="round"/>
<path d="M180.702 139.395C180.702 139.395 179.991 141.61 181.978 143.472" stroke="#1C4E79" stroke-width="1.3" stroke-miterlimit="10"/>
<path d="M155.258 133.464C155.92 133.464 165.978 133.621 166.583 133.404C166.224 131.789 165.698 130.931 166.88 129.544C167.862 128.374 168.211 127.294 168.011 125.676C167.997 125.576 167.989 125.475 167.988 125.374C167.908 123.969 168.499 122.859 169.64 122.171C170.725 121.514 171.963 121.644 172.131 120.109C172.199 119.442 172.368 118.791 172.632 118.184C173.003 117.395 173.525 116.703 174.164 116.153C174.803 115.603 175.544 115.21 176.335 114.999C177.98 114.601 179.143 116.074 180.565 116.629C182.264 117.316 184.045 116.256 185.832 116.969C186.724 117.331 187.306 118.001 187.902 118.781C188.405 119.449 188.884 120.126 189.323 120.829C189.753 121.486 190.183 122.146 190.91 122.449C191.853 122.849 192.994 122.579 193.831 123.281C194.668 123.984 194.933 125.051 194.772 126.119C194.542 127.794 193.321 129.501 192.044 130.049C190.71 130.611 189.187 130.049 187.989 129.389C186.45 128.564 185.022 127.489 183.585 126.484L182.651 126.041C182.345 125.901 182.001 125.888 181.687 126.006C181.614 126.026 181.544 126.056 181.478 126.094C181.346 126.167 181.225 126.26 181.119 126.371C180.954 126.542 180.824 126.748 180.737 126.976C179.935 129.192 179.356 131.495 179.012 133.846" stroke="#1C4E79" stroke-width="1.3" stroke-miterlimit="10"/>
<path d="M173.211 140C173.211 140 175.828 147.5 179.439 147.67C183.05 147.84 185.484 141.467 185.484 141.467" stroke="#1C4E79" stroke-width="1.3" stroke-linecap="round" stroke-linejoin="round"/>
<path d="M163.033 154.875L153.66 179.572" stroke="#1C4E79" stroke-width="1.3" stroke-miterlimit="10"/>
<path d="M164.239 147.571L164.338 147.674C164.304 147.424 164.262 147.209 164.221 146.979C164.168 145.786 163.961 144.608 163.604 143.479C163.176 142.081 162.523 140.778 161.675 139.629C152.785 124.239 127.421 132.959 127.421 132.959C112.011 135.459 87.6307 152.801 83.6517 175.789C79.6727 198.776 106.245 201.676 107.546 201.914C107.893 201.995 108.255 201.939 108.567 201.756C108.878 201.573 109.119 201.274 109.246 200.914C117.032 171.414 135.876 148.119 135.878 148.116C137.948 145.551 138.461 142.646 141.313 140.689C144.432 138.546 148.231 138.139 151.739 139.276C160.762 142.201 162.197 152.234 159.593 160.859C159.593 160.859 164.301 154.584 164.239 147.571Z" fill="#333333"/>
<path d="M32.2028 110.814L32.1953 110.824" stroke="#429AC7" stroke-width="1.3" stroke-miterlimit="10"/>
<path d="M59.2653 110.703L59.2578 110.695" stroke="#429AC7" stroke-width="1.3" stroke-miterlimit="10"/>
<path d="M29.4629 124.579C25.4103 128.934 21.3071 131.561 20.302 130.451C19.2969 129.341 21.7717 124.926 25.822 120.571C29.8723 116.216 33.9686 113.599 34.9737 114.701C34.9962 114.721 35.013 114.748 35.022 114.779C35.8776 115.999 33.4304 120.329 29.4629 124.579Z" stroke="#1C4E79" stroke-width="1.3" stroke-miterlimit="10"/>
<path d="M45.3184 128.309C45.3034 130.387 44.8536 132.435 44.0028 134.297C43.152 136.158 41.9229 137.785 40.4081 139.054C38.8933 140.322 37.1329 141.2 35.26 141.619C33.3869 142.039 31.4508 141.99 29.5979 141.476C27.2413 140.816 25.111 139.427 23.4647 137.479C21.8181 135.531 20.7259 133.107 20.3197 130.499C20.3153 130.484 20.3153 130.468 20.3197 130.454C21.3248 131.564 25.428 128.936 29.4806 124.581C33.4458 120.331 35.8953 116.004 35.042 114.781H35.0397C37.4252 115.27 39.6303 116.498 41.3895 118.316C43.1488 120.134 44.3876 122.466 44.9573 125.031C45.2006 126.104 45.3218 127.204 45.3184 128.309Z" fill="#429AC7"/>
<path d="M35.0405 114.772C34.0538 111.967 35.7305 109.392 38.3065 108.772C41.5748 107.98 43.9254 110.695 45.3169 113.6C47.058 117.237 46.5083 122.045 44.5763 125.555" stroke="#1C4E79" stroke-width="1.3" stroke-miterlimit="10"/>
<path d="M20.3654 130.527C17.7894 129.42 15.4066 131.212 14.7994 134C14.0289 137.54 16.4968 140.13 19.1533 141.68C22.4768 143.617 26.8284 143.145 30.0829 141.09" stroke="#1C4E79" stroke-width="1.3" stroke-miterlimit="10"/>
<path d="M42.788 136.41L52.7516 147.38C53.1003 147.774 53.2923 148.302 53.2857 148.849C53.2792 149.396 53.0748 149.918 52.7169 150.302C52.3588 150.686 51.876 150.902 51.3728 150.902C50.8695 150.902 50.3865 150.687 50.0284 150.303L40.0625 139.33L42.788 136.41Z" stroke="#1C4E79" stroke-width="1.3" stroke-miterlimit="10"/>
<path d="M60.2566 143.894C61.5377 145.307 59.5666 149.694 55.8291 153.697C52.0916 157.699 48.0367 159.797 46.7556 158.387C45.6309 157.149 47.004 153.637 49.8537 150.104L50.0331 150.304C50.3947 150.669 50.872 150.867 51.3651 150.859C51.8582 150.85 52.329 150.635 52.6798 150.258C53.0303 149.881 53.2336 149.371 53.2469 148.836C53.2605 148.3 53.0829 147.779 52.7517 147.382L52.57 147.184C55.8728 144.114 59.1319 142.659 60.2566 143.894Z" fill="#429AC7"/>
<path d="M45.3184 128.309C45.3034 130.387 44.8536 132.435 44.0028 134.297C43.152 136.158 41.9229 137.785 40.4081 139.054C38.8933 140.322 37.1329 141.2 35.26 141.619C33.3869 142.039 31.4508 141.99 29.5979 141.476C27.2413 140.816 25.111 139.427 23.4647 137.479C21.8181 135.531 20.7259 133.107 20.3197 130.499C20.3153 130.484 20.3153 130.468 20.3197 130.454C21.3248 131.564 25.428 128.936 29.4806 124.581C33.4458 120.331 35.8953 116.004 35.042 114.781H35.0397C37.4252 115.27 39.6303 116.498 41.3895 118.316C43.1488 120.134 44.3876 122.466 44.9573 125.031C45.2006 126.104 45.3218 127.204 45.3184 128.309Z" stroke="#1C4E79" stroke-width="1.3" stroke-miterlimit="10"/>
<path d="M60.2566 143.894C61.5377 145.307 59.5666 149.694 55.8291 153.697C52.0916 157.699 48.0367 159.797 46.7556 158.387C45.6309 157.149 47.004 153.637 49.8537 150.104L50.0331 150.304C50.3947 150.669 50.872 150.867 51.3651 150.859C51.8582 150.85 52.329 150.635 52.6798 150.258C53.0303 149.881 53.2336 149.371 53.2469 148.836C53.2605 148.3 53.0829 147.779 52.7517 147.382L52.57 147.184C55.8728 144.114 59.1319 142.659 60.2566 143.894Z" stroke="#1C4E79" stroke-width="1.3" stroke-miterlimit="10"/>
<path d="M32.5211 131.244L31.8633 128.164L36.8313 133.487L38.5218 131.557L35.1937 135.309" stroke="white" stroke-width="1.735" stroke-linecap="round" stroke-linejoin="round"/>
<g opacity="0.5">
<path opacity="0.5" d="M67.898 124.978C68.2016 126.148 68.2246 127.458 67.7623 128.578C67.3782 129.513 66.6376 130.191 65.782 130.668C65.4163 133.348 63.5556 134.668 61.4258 135.021C61.3545 135.231 61.251 135.498 61.1705 135.673C60.3011 137.321 58.3139 138.093 56.6947 138.518C55.7609 138.631 54.7466 138.536 54.029 137.848C53.5653 137.408 53.255 136.808 53.1504 136.148C53.0561 135.491 53.2079 134.831 53.2217 134.181C53.2378 132.748 52.8882 131.378 51.9935 130.303C49.6084 127.423 50.8688 122.133 56.8856 122.038C62.9024 121.943 67.2678 123.381 69.3976 120.398C69.4107 120.429 69.4215 120.461 69.4298 120.493C69.5563 121.891 69.3148 123.608 67.898 124.978Z" fill="#429AC7"/>
</g>
<path d="M57.0898 130.688C57.6326 131.32 58.6216 131.615 59.3323 131.745C61.5295 132.123 63.7803 131.747 65.7723 130.67C66.6279 130.193 67.3685 129.515 67.7526 128.58C68.2126 127.46 68.1919 126.15 67.8883 124.98" stroke="#1C4E79" stroke-width="1.3" stroke-miterlimit="10"/>
<path d="M56.1797 133.748C56.481 134.225 57.056 134.498 57.5597 134.668C57.5795 134.671 57.5988 134.677 57.6172 134.685C58.8498 135.103 60.1529 135.215 61.4306 135.013C63.5604 134.668 65.4211 133.34 65.7868 130.66" stroke="#1C4E79" stroke-width="1.3" stroke-miterlimit="10"/>
<path d="M61.4467 134.926C61.4467 134.953 61.4306 134.988 61.4237 135.021C61.3524 135.231 61.2489 135.498 61.1684 135.673C60.299 137.321 58.3118 138.093 56.6926 138.518L56.596 138.543C55.4943 138.828 54.2017 138.908 53.2449 138.126C52.7099 137.687 52.3336 137.058 52.1823 136.348C52.0328 135.646 52.1593 134.918 52.1202 134.206C52.0397 132.646 51.5774 131.188 50.524 130.086C47.7318 127.156 48.7438 121.301 55.2712 120.718C61.7986 120.136 66.6493 121.343 68.7653 117.926C69.1218 118.735 69.346 119.606 69.4277 120.498C69.5542 121.896 69.315 123.613 67.8959 124.983C67.1613 125.669 66.3059 126.184 65.382 126.498C59.0294 128.858 57.9047 126.748 57.9047 126.748" stroke="#1C4E79" stroke-width="1.3" stroke-miterlimit="10"/>
<g opacity="0.5">
<path opacity="0.5" d="M28.2086 166.061C29.2712 166.438 30.4741 166.516 31.5229 166.061C32.3992 165.681 33.0501 164.901 33.5216 163.993C36.001 163.701 37.2936 161.743 37.6984 159.433C37.8916 159.366 38.1423 159.263 38.3056 159.183C39.8558 158.303 40.6447 156.183 41.1001 154.433C41.2404 153.433 41.1921 152.321 40.5918 151.513C40.2038 150.993 39.6642 150.632 39.0623 150.491C38.4597 150.361 37.8479 150.491 37.2499 150.491C35.9343 150.453 34.6877 150.016 33.7355 148.991C31.1825 146.286 26.2697 147.443 25.9431 153.976C25.6165 160.508 26.7619 165.313 23.9375 167.498C23.9656 167.514 23.9948 167.528 24.0249 167.538C25.3037 167.748 26.8907 167.551 28.2086 166.061Z" fill="#429AC7"/>
</g>
<path d="M33.8903 154.555C34.4515 155.17 34.6838 156.257 34.7735 157.032C35.0346 159.44 34.5964 161.876 33.52 164C33.06 164.907 32.3976 165.687 31.5213 166.067C30.4725 166.525 29.2696 166.447 28.207 166.067" stroke="#1C4E79" stroke-width="1.3" stroke-miterlimit="10"/>
<path d="M36.7395 153.689C37.1673 154.037 37.3904 154.672 37.5307 155.217C37.5307 155.242 37.5307 155.259 37.5445 155.277C37.8787 156.632 37.9307 158.052 37.6963 159.432C37.2915 161.734 35.9989 163.699 33.5195 163.992" stroke="#1C4E79" stroke-width="1.3" stroke-miterlimit="10"/>
<path d="M37.6099 159.454L37.6996 159.431C37.8928 159.364 38.1435 159.261 38.3068 159.181C39.857 158.301 40.6459 156.181 41.1013 154.431L41.1289 154.329C41.4348 153.144 41.559 151.744 40.8782 150.671C40.4955 150.074 39.9322 149.641 39.2866 149.449C38.6472 149.256 37.971 149.366 37.3201 149.294C35.8872 149.146 34.5601 148.586 33.5941 147.399C31.0112 144.249 25.5878 145.116 24.7943 152.181C24.0008 159.246 24.9231 164.566 21.7031 166.726C22.4315 167.146 23.2214 167.424 24.0376 167.549C25.3164 167.741 26.9034 167.549 28.2213 166.049C28.881 165.279 29.3897 164.371 29.7163 163.381C32.1359 156.576 30.2522 155.269 30.2522 155.269" stroke="#1C4E79" stroke-width="1.3" stroke-miterlimit="10"/>
<g opacity="0.71">
<path opacity="0.71" d="M101.256 107.109C98.5783 105.887 96.6371 104.302 96.9223 103.572C97.2075 102.842 99.6018 103.242 102.281 104.464C104.961 105.687 106.893 107.269 106.612 107.999C106.608 108.015 106.6 108.029 106.589 108.039C106.226 108.714 103.873 108.307 101.256 107.109Z" fill="#429AC7"/>
<path opacity="0.71" d="M109.117 113.079C107.967 114.579 105.963 115.256 104.16 115.079C105.139 114.281 105.889 113.196 106.321 111.952C106.754 110.708 106.852 109.356 106.603 108.054C107.633 107.006 109.068 107.361 109.843 108.554C110.816 110.069 110.106 111.804 109.117 113.079Z" fill="#429AC7"/>
<path opacity="0.71" d="M96.909 103.587C95.8643 104.297 95.0306 105.32 94.5083 106.532C93.9859 107.745 93.7973 109.096 93.965 110.422C92.585 109.147 91.665 107.135 91.8421 105.185C91.9939 103.517 92.6333 101.75 94.3169 101.455C95.6302 101.212 96.8676 102.07 96.909 103.587Z" fill="#429AC7"/>
<path opacity="0.71" d="M98.749 116.25L95.9453 123.5C95.845 123.759 95.6541 123.965 95.4144 124.071C95.1748 124.177 94.9061 124.175 94.6676 124.066C94.4291 123.957 94.2403 123.75 94.1425 123.489C94.0448 123.229 94.0464 122.937 94.1467 122.678L96.9504 115.428L98.749 116.25Z" fill="#429AC7"/>
<path opacity="0.71" d="M98.9132 126.643C98.5544 127.575 96.2659 127.42 93.8026 126.295C91.3393 125.17 89.6373 123.5 90.0076 122.568C90.3227 121.75 92.1098 121.768 94.1982 122.535L94.1476 122.665C94.0474 122.924 94.0457 123.216 94.1435 123.477C94.2412 123.737 94.4301 123.945 94.6686 124.054C94.9071 124.163 95.1757 124.164 95.4154 124.058C95.6548 123.952 95.846 123.747 95.9462 123.488L95.9968 123.355C97.961 124.443 99.2306 125.825 98.9132 126.643Z" fill="#429AC7"/>
<g opacity="0.5">
<path opacity="0.5" d="M108.599 126.852C108.153 127.257 107.592 127.481 107.012 127.487C106.53 127.453 106.073 127.239 105.719 126.882C104.486 127.22 103.55 126.527 102.982 125.505C102.879 125.505 102.741 125.505 102.651 125.505C101.768 125.38 101.041 124.505 100.544 123.77C100.314 123.315 100.155 122.77 100.314 122.27C100.415 121.948 100.614 121.673 100.878 121.49C101.156 121.344 101.446 121.226 101.745 121.14C102.371 120.896 102.887 120.399 103.184 119.752C103.964 117.97 106.503 117.58 107.72 120.64C108.937 123.7 109.167 126.215 110.876 126.722C110.865 126.735 110.854 126.747 110.841 126.757C110.503 126.972 110.122 127.093 109.731 127.11C109.34 127.126 108.951 127.038 108.599 126.852Z" fill="#429AC7"/>
</g>
<g opacity="0.5">
<path opacity="0.5" d="M84.0273 113.42C83.9137 114.038 84.0016 114.681 84.2757 115.237C84.5349 115.679 84.9253 116.012 85.382 116.18C85.704 117.517 86.7114 118.08 87.8085 118.13C87.8568 118.23 87.9212 118.36 87.9718 118.442C88.4939 119.227 89.5404 119.502 90.3822 119.62C90.8606 119.62 91.3689 119.515 91.7001 119.12C91.9124 118.869 92.0392 118.547 92.0589 118.207C92.0426 117.87 91.998 117.535 91.9255 117.207C91.8216 116.493 91.9748 115.764 92.3533 115.17C93.4182 113.57 92.5143 110.962 89.4599 111.27C86.4055 111.577 84.2665 112.565 83.036 111.18L83.0245 111.23C83.0126 111.656 83.0979 112.079 83.2727 112.462C83.4477 112.844 83.7069 113.173 84.0273 113.42Z" fill="#429AC7"/>
</g>
<path opacity="0.71" d="M106.605 108.055C106.214 108.725 103.877 108.305 101.267 107.12C98.7506 105.965 96.9106 104.5 96.9106 103.718C96.9099 103.668 96.9178 103.618 96.9336 103.57C96.9336 103.57 96.9175 103.57 96.9175 103.588C95.8729 104.298 95.0391 105.32 94.5168 106.533C93.9945 107.746 93.8059 109.096 93.9735 110.423C93.9735 110.44 93.9735 110.465 93.9735 110.483C94.1118 111.532 94.468 112.532 95.015 113.409C95.5619 114.286 96.2855 115.016 97.1307 115.544C97.976 116.071 98.9206 116.383 99.8933 116.455C100.866 116.527 101.84 116.357 102.743 115.958C103.223 115.742 103.678 115.465 104.098 115.133C104.123 115.115 104.14 115.098 104.163 115.08C105.142 114.283 105.891 113.198 106.324 111.954C106.756 110.71 106.854 109.358 106.605 108.055ZM100.747 109.408L99.4866 112.54L100.269 112.895C100.366 112.942 100.442 113.028 100.481 113.135C100.52 113.242 100.518 113.362 100.476 113.468C100.444 113.546 100.391 113.612 100.324 113.656C100.257 113.701 100.179 113.722 100.101 113.718C100.052 113.717 100.004 113.708 99.9581 113.69L98.8081 113.163C98.7828 113.163 98.7598 113.135 98.7345 113.128L97.7133 112.65C97.6648 112.629 97.6209 112.598 97.5836 112.558C97.5466 112.518 97.5171 112.471 97.4974 112.418C97.4774 112.366 97.4672 112.31 97.4677 112.253C97.4679 112.196 97.4787 112.14 97.4994 112.088C97.5192 112.035 97.5489 111.986 97.5862 111.945C97.6236 111.904 97.6683 111.872 97.7172 111.85C97.7662 111.828 97.8189 111.817 97.872 111.818C97.9249 111.818 97.9774 111.83 98.0261 111.853L98.7506 112.2L99.4613 110.433L99.3716 110.493C99.3286 110.525 99.2801 110.547 99.2293 110.559C99.1782 110.57 99.1258 110.571 99.0745 110.56C99.0234 110.55 98.9747 110.528 98.9312 110.497C98.8875 110.466 98.85 110.426 98.8208 110.379C98.7916 110.332 98.7709 110.28 98.7603 110.224C98.7497 110.169 98.7493 110.112 98.7589 110.056C98.7688 110.001 98.7884 109.948 98.8171 109.9C98.8456 109.853 98.8824 109.812 98.9254 109.78L100.154 108.878C100.225 108.823 100.311 108.796 100.398 108.801C100.486 108.806 100.569 108.843 100.634 108.905C100.699 108.966 100.745 109.047 100.766 109.137C100.786 109.227 100.779 109.322 100.747 109.408Z" fill="#429AC7"/>
</g>
<g opacity="0.5">
<path opacity="0.5" d="M55.554 186.622C56.5683 188.207 57.0927 189.717 56.7247 189.992C56.3567 190.267 55.2412 189.21 54.2269 187.625C53.2126 186.04 52.6882 184.532 53.0539 184.255H53.0792C53.4702 184.022 54.5627 185.072 55.554 186.622Z" fill="#429AC7"/>
<path opacity="0.5" d="M53.2892 180.748C54.3403 180.385 55.5731 180.748 56.454 181.478C55.7083 181.539 54.9944 181.83 54.3959 182.317C53.7975 182.805 53.3393 183.467 53.0753 184.228C52.2266 184.403 51.5918 183.708 51.5527 182.813C51.5044 181.69 52.3945 181.048 53.2892 180.748Z" fill="#429AC7"/>
<path opacity="0.5" d="M56.7396 189.998C57.5456 190.007 58.3345 189.745 58.9982 189.248C59.5767 188.806 60.0332 188.201 60.3184 187.498C60.6473 188.648 60.5208 190.018 59.8377 190.961C59.2581 191.768 58.3933 192.461 57.4365 192.008C56.6821 191.671 56.3026 190.788 56.7396 189.998Z" fill="#429AC7"/>
<path opacity="0.5" d="M59.6016 182.799L63.2333 180.049C63.3632 179.949 63.5242 179.91 63.6808 179.939C63.8372 179.969 63.9766 180.065 64.0682 180.206C64.1597 180.347 64.1958 180.522 64.1687 180.692C64.1415 180.863 64.0532 181.014 63.9233 181.114L60.2939 183.864L59.6016 182.799Z" fill="#429AC7"/>
<path opacity="0.5" d="M62.6418 177.364C63.1018 177.011 64.2518 177.906 65.1718 179.364C66.0918 180.821 66.4828 182.291 66.0159 182.644C65.6065 182.954 64.6865 182.309 63.8401 181.169L63.9045 181.119C64.0344 181.019 64.1225 180.868 64.1499 180.698C64.177 180.528 64.1409 180.353 64.0494 180.211C63.9578 180.07 63.8184 179.974 63.6618 179.945C63.5054 179.915 63.3444 179.954 63.2145 180.054L63.1478 180.104C62.4785 178.841 62.2393 177.674 62.6418 177.364Z" fill="#429AC7"/>
<g opacity="0.5">
<path opacity="0.5" d="M57.7106 173.807C58.0621 173.756 58.4188 173.84 58.7203 174.042C58.9579 174.233 59.1288 174.505 59.2056 174.815C59.9439 175.08 60.2199 175.772 60.2038 176.502C60.2627 176.539 60.3195 176.579 60.374 176.622C60.7949 177 60.9076 177.705 60.9421 178.267C60.9442 178.427 60.9157 178.585 60.8586 178.732C60.8018 178.88 60.7174 179.012 60.6109 179.122C60.4621 179.254 60.276 179.325 60.0842 179.325C59.8961 179.301 59.7107 179.258 59.5299 179.197C59.1369 179.103 58.7256 179.176 58.3799 179.4C57.4392 180.045 56.0109 179.342 56.3099 177.327C56.6089 175.312 57.2414 173.933 56.5123 173.062H56.5399C56.7761 173.073 57.0061 173.147 57.2101 173.277C57.4142 173.407 57.586 173.589 57.7106 173.807Z" fill="#429AC7"/>
</g>
<g opacity="0.5">
<path opacity="0.5" d="M67.2065 189.249C67.3816 188.913 67.4441 188.522 67.3836 188.141C67.3105 187.83 67.1417 187.556 66.9052 187.364C66.9535 186.519 66.4659 185.984 65.838 185.726C65.838 185.659 65.8127 185.569 65.7989 185.509C65.6333 184.946 65.0744 184.569 64.6052 184.324C64.4698 184.262 64.3239 184.232 64.1772 184.235C64.0302 184.237 63.8856 184.273 63.7519 184.339C63.5849 184.44 63.4552 184.601 63.3839 184.794C63.3347 184.993 63.3023 185.196 63.2873 185.401C63.2202 185.838 63.0021 186.229 62.6778 186.496C61.7785 187.204 61.8452 188.906 63.6737 189.361C65.5022 189.816 66.919 189.689 67.3905 190.751C67.396 190.743 67.4006 190.734 67.4043 190.724C67.4862 190.479 67.5108 190.217 67.4763 189.959C67.4418 189.702 67.3491 189.458 67.2065 189.249Z" fill="#429AC7"/>
</g>
<path opacity="0.5" d="M53.0742 184.231C53.4767 184.023 54.56 185.071 55.549 186.613C56.4943 188.096 57.0141 189.513 56.7772 189.918C56.7627 189.944 56.7441 189.967 56.722 189.986C56.722 189.986 56.722 189.986 56.7358 189.986C57.5417 189.995 58.3306 189.733 58.9944 189.236C59.5722 188.798 60.0294 188.197 60.3169 187.498C60.3169 187.498 60.3169 187.473 60.3307 187.466C60.5747 186.875 60.6921 186.231 60.6734 185.584C60.655 184.936 60.5011 184.302 60.2238 183.729C59.9462 183.155 59.5524 182.658 59.0722 182.275C58.5917 181.891 58.0374 181.632 57.4511 181.516C57.1376 181.455 56.8188 181.436 56.5012 181.458H56.4529C55.7073 181.519 54.9933 181.811 54.3949 182.298C53.7964 182.785 53.3383 183.448 53.0742 184.208V184.231ZM56.5081 185.616L58.102 184.448L57.8099 183.998C57.7738 183.939 57.7607 183.867 57.7731 183.798C57.7855 183.729 57.8228 183.668 57.8766 183.628C57.9159 183.597 57.9636 183.58 58.0123 183.58C58.0611 183.58 58.1087 183.597 58.148 183.628C58.1733 183.645 58.1959 183.666 58.2147 183.691L58.6517 184.376C58.6632 184.391 58.6701 184.408 58.6793 184.421L59.0634 185.031C59.0834 185.058 59.0979 185.09 59.1057 185.124C59.1138 185.159 59.1149 185.194 59.1092 185.229C59.1037 185.264 59.0912 185.297 59.0731 185.326C59.0549 185.355 59.0312 185.38 59.0036 185.398C58.9772 185.418 58.9473 185.433 58.9155 185.441C58.8838 185.448 58.8511 185.449 58.8192 185.443C58.7872 185.436 58.7568 185.423 58.7297 185.404C58.7025 185.385 58.6791 185.36 58.6609 185.331L58.3849 184.896L57.4856 185.558H57.5477C57.5795 185.557 57.611 185.563 57.6406 185.575C57.6705 185.587 57.6977 185.605 57.7209 185.629C57.7439 185.652 57.7628 185.681 57.7759 185.712C57.789 185.743 57.7961 185.777 57.7973 185.812C57.7984 185.846 57.7931 185.881 57.7819 185.913C57.7708 185.945 57.7538 185.975 57.7322 186C57.7106 186.025 57.6846 186.046 57.6556 186.06C57.6266 186.074 57.5956 186.082 57.5638 186.083L56.6576 186.113C56.6056 186.115 56.5546 186.098 56.5129 186.064C56.4711 186.031 56.441 185.983 56.4276 185.928C56.4081 185.874 56.4053 185.814 56.4198 185.757C56.4343 185.701 56.4653 185.651 56.5081 185.616Z" fill="#429AC7"/>
</g>
<path d="M81.174 138.32C80.0268 138.319 78.9051 138.688 77.951 139.381C76.9967 140.073 76.2527 141.057 75.8134 142.209C75.3739 143.361 75.2586 144.628 75.4824 145.851C75.706 147.074 76.2582 148.198 77.0694 149.079C77.8806 149.961 78.9143 150.562 80.0394 150.805C81.1646 151.048 82.3307 150.922 83.3905 150.445C84.4501 149.967 85.3556 149.159 85.9925 148.121C86.6291 147.084 86.9686 145.865 86.9677 144.618C86.9677 143.791 86.818 142.972 86.5268 142.208C86.2356 141.444 85.8087 140.75 85.2708 140.165C84.7328 139.58 84.0941 139.116 83.3912 138.8C82.6883 138.483 81.9348 138.32 81.174 138.32ZM82.3539 142.75L81.0935 145.883L81.8755 146.238C81.9728 146.284 82.0494 146.37 82.088 146.478C82.1269 146.585 82.1248 146.705 82.0825 146.81C82.0505 146.888 81.9976 146.954 81.9307 146.999C81.8638 147.043 81.786 147.065 81.7076 147.06C81.6591 147.06 81.6108 147.051 81.565 147.033L80.415 146.505C80.3897 146.505 80.3667 146.478 80.3437 146.47L79.3202 145.993C79.2717 145.972 79.2277 145.94 79.1905 145.901C79.1535 145.861 79.124 145.813 79.1042 145.761C79.0842 145.708 79.0741 145.652 79.0746 145.595C79.0748 145.539 79.0856 145.483 79.1063 145.43C79.1263 145.377 79.1558 145.328 79.193 145.287C79.2305 145.247 79.2751 145.214 79.3241 145.192C79.3733 145.17 79.4258 145.159 79.4789 145.16C79.5318 145.161 79.5842 145.173 79.633 145.195L80.3667 145.533L81.0774 143.765L80.99 143.825C80.9472 143.862 80.898 143.888 80.8453 143.903C80.7927 143.918 80.7379 143.921 80.6841 143.912C80.6305 143.903 80.579 143.882 80.533 143.85C80.4872 143.819 80.4477 143.777 80.4168 143.729C80.3863 143.68 80.3651 143.625 80.3547 143.567C80.3444 143.509 80.3451 143.449 80.3566 143.391C80.3683 143.334 80.3909 143.279 80.4226 143.231C80.4543 143.183 80.4948 143.143 80.5415 143.113L81.772 142.21C81.8428 142.155 81.9286 142.128 82.0156 142.133C82.1025 142.138 82.1853 142.175 82.2504 142.238C82.316 142.3 82.3615 142.383 82.3801 142.476C82.3988 142.568 82.3896 142.664 82.3539 142.75Z" fill="#429AC7"/>
<path d="M44.634 171.354C44.6179 171.977 44.772 172.591 45.0769 173.119C45.3819 173.646 45.824 174.064 46.3472 174.318C46.8705 174.573 47.4515 174.653 48.0168 174.548C48.5819 174.444 49.1058 174.159 49.5224 173.731C49.9387 173.303 50.2289 172.75 50.3564 172.143C50.4838 171.535 50.4424 170.9 50.2379 170.318C50.0332 169.736 49.6742 169.233 49.2066 168.873C48.7388 168.512 48.1833 168.311 47.6102 168.294C46.8422 168.271 46.0974 168.581 45.5395 169.154C44.9813 169.728 44.6556 170.519 44.634 171.354ZM46.704 170.774L48.1277 171.502L48.3025 171.082C48.325 171.03 48.3652 170.99 48.4149 170.97C48.4644 170.95 48.5191 170.953 48.567 170.976C48.6035 170.994 48.6341 171.023 48.6548 171.06C48.6753 171.098 48.6849 171.141 48.682 171.184C48.682 171.211 48.6771 171.237 48.6682 171.262L48.4083 171.884L48.3922 171.922L48.1622 172.469C48.152 172.495 48.1371 172.519 48.1182 172.539C48.0994 172.559 48.0771 172.574 48.0524 172.584C48.0281 172.595 48.0018 172.599 47.9759 172.599C47.9496 172.598 47.9239 172.591 47.9 172.579C47.8756 172.567 47.8537 172.551 47.8356 172.53C47.8174 172.509 47.8031 172.484 47.7939 172.457C47.7847 172.43 47.7806 172.401 47.7817 172.372C47.7831 172.343 47.7896 172.315 47.8011 172.289L47.9667 171.897L47.1617 171.487L47.1893 171.534C47.2033 171.558 47.2129 171.584 47.2175 171.612C47.2221 171.64 47.2217 171.669 47.2162 171.696C47.2104 171.724 47.2001 171.75 47.1851 171.773C47.1704 171.796 47.1513 171.816 47.1295 171.832C47.1076 171.847 47.0832 171.857 47.0575 171.862C47.0319 171.867 47.0057 171.867 46.9802 171.861C46.9549 171.855 46.9307 171.843 46.9093 171.827C46.888 171.811 46.8698 171.79 46.8558 171.767L46.4579 171.086C46.4353 171.048 46.425 171.003 46.4284 170.958C46.4316 170.913 46.4484 170.87 46.4763 170.836C46.5025 170.804 46.537 170.78 46.5756 170.769C46.614 170.758 46.6547 170.76 46.6925 170.774H46.704Z" fill="#429AC7"/>
</g>
</g>
<path d="M248.16 165.629C250.927 159.129 252.673 151.629 252.838 142.932C253.637 100.392 300.246 67.5641 351.949 103.647C403.652 139.729 357.957 238.994 357.957 238.994" stroke="#CCDDE2" stroke-width="1.1175" stroke-miterlimit="10"/>
<path d="M212.01 238.994C209.725 237.142 192.31 219.569 202.77 209.512C207.24 205.219 216.86 200.207 226.496 192.564" stroke="#CCDDE2" stroke-width="1.1175" stroke-miterlimit="10"/>
<path d="M336.633 132.369C336.821 133.376 337.314 134.295 338.04 134.994" stroke="#CCDDE2" stroke-width="1.1175" stroke-miterlimit="10"/>
<path d="M296.039 151.685C295.68 151.782 295.377 151.852 295.138 151.91C294.958 151.942 294.81 151.975 294.709 151.99H294.687L294.546 152.015C294.546 152.015 294.532 151.997 294.522 151.997C292.1 150.162 292.843 146.747 292.843 146.747C300.087 147.925 301.589 141.87 301.589 141.87C301.494 138.967 300.959 137.602 299.723 136.817C298.432 135.982 296.373 135.767 293.226 135.067L292.705 134.947C288.025 133.85 285.842 128.892 284.98 126.142C284.779 125.533 284.617 124.911 284.496 124.28C279.195 126.335 275.876 129.245 273.965 131.427C273.209 115.955 288.258 118.177 288.258 118.177C290.79 118.215 293.307 118.594 295.743 119.307C296.295 119.557 296.824 119.807 297.327 120.057C297.57 120.185 297.826 120.322 298.054 120.465C298.282 120.607 298.539 120.747 298.762 120.89C298.924 120.987 299.089 121.092 299.246 121.202C302.556 123.37 305.202 126.463 306.877 130.122C306.901 130.172 306.922 130.223 306.94 130.275C307.016 130.444 307.083 130.618 307.141 130.795C310.547 146.175 300.038 150.577 296.039 151.685Z" fill="#95CECE"/>
<path d="M296.039 151.684C294.982 149.871 295.472 147.684 295.472 147.684C302.708 148.864 304.215 142.809 304.215 142.809C304.06 138.356 302.894 137.521 299.723 136.809C298.548 136.536 297.105 136.286 295.331 135.879C294.595 135.708 293.886 135.43 293.226 135.051C288.408 132.326 287.109 125.204 287.109 125.204C286.363 125.491 285.656 125.804 284.98 126.126C284.779 125.517 284.617 124.895 284.496 124.264C279.195 126.319 275.876 129.229 273.965 131.411C273.209 115.939 288.258 118.161 288.258 118.161C290.79 118.199 293.307 118.579 295.743 119.291C296.295 119.541 296.824 119.791 297.327 120.041C297.57 120.169 297.826 120.306 298.054 120.449C298.282 120.591 298.539 120.731 298.762 120.874C298.924 120.971 299.089 121.076 299.246 121.186C302.556 123.355 305.202 126.448 306.877 130.106C306.901 130.156 306.922 130.207 306.94 130.259C307.016 130.428 307.083 130.602 307.141 130.779C310.547 146.174 300.038 150.576 296.039 151.684Z" fill="#95CECE"/>
<path d="M321.436 220.162C322.555 227.702 323.923 235.119 325.353 238.994H261.106C253.371 216.329 257.039 191.569 257.039 191.569L245.629 191.939C252.492 179.514 250.05 169.009 248.892 165.504C257.855 163.932 266.818 162.697 275.876 162.592C275.634 167.942 281.293 174.092 289.454 172.474C292.763 171.824 296.797 170.474 296.884 164.492L299.013 164.877C301.959 165.377 304.624 165.912 307.15 166.514C313.691 168.069 319.311 170.014 326.314 172.474C316.625 179.877 321.44 196.974 321.44 196.974L321.683 197.544L318.589 196.974C318.589 196.974 319.735 208.702 321.436 220.162Z" fill="#353642"/>
<path d="M254.779 55.3853C261.184 55.3853 266.377 50.0261 266.377 43.4153C266.377 36.8043 261.184 31.4453 254.779 31.4453C248.373 31.4453 243.18 36.8043 243.18 43.4153C243.18 50.0261 248.373 55.3853 254.779 55.3853Z" fill="#95CECE"/>
<path d="M258.592 39.4209C258.429 39.0311 258.209 38.6694 257.941 38.3484C257.482 37.7856 256.841 37.4151 256.136 37.3066C255.432 37.1979 254.713 37.3586 254.115 37.7584C253.725 38.0189 253.398 38.3699 253.162 38.7836C252.926 39.1971 252.786 39.6619 252.754 40.1409C252.144 39.9131 251.479 39.8959 250.859 40.0916C250.238 40.2874 249.696 40.6854 249.314 41.2264C248.932 41.7671 248.73 42.4214 248.739 43.0906C248.747 43.7599 248.966 44.4084 249.363 44.9384C250.193 46.0559 251.606 46.7909 252.885 47.2184C253.556 47.4386 254.247 47.5904 254.946 47.6709C255.3 47.7109 257.323 47.9909 257.512 47.6709C258.747 45.6384 259.644 41.9059 258.592 39.4209Z" fill="white"/>
<path d="M235.26 39.5266C234.5 39.4391 233.729 39.3841 232.961 39.3416C232.138 39.3841 231.314 39.4466 230.491 39.5516C227.889 39.8511 225.341 40.5243 222.92 41.5516C221.836 42.0118 220.791 42.5646 219.795 43.2041C219.077 43.6496 218.389 44.1448 217.736 44.6866C217.254 43.9733 216.867 43.1963 216.585 42.3766C216.106 40.9933 215.93 39.5178 216.07 38.0558C216.21 36.5938 216.662 35.1823 217.395 33.9226C218.127 32.6628 219.121 31.5863 220.305 30.7708C221.489 29.9553 222.833 29.4208 224.241 29.2063C225.649 28.9916 227.086 29.1018 228.448 29.5291C229.81 29.9566 231.063 30.6903 232.117 31.6778C233.171 32.6651 233.999 33.8813 234.543 35.2391C235.087 36.5968 235.332 38.0621 235.26 39.5291V39.5266Z" fill="#95CECE"/>
<path d="M230.489 39.5515C227.888 39.851 225.34 40.5242 222.919 41.5515C222.778 41.1665 222.662 40.8015 222.623 40.6765C222.429 40.1085 222.289 39.5225 222.204 38.9265C222.057 37.7865 222.078 36.4265 222.592 35.389C222.832 34.8907 223.222 34.4867 223.704 34.2377C224.186 33.9887 224.734 33.9085 225.264 34.009C225.794 34.1095 226.278 34.3855 226.643 34.795C227.008 35.2045 227.234 35.7252 227.287 36.279C227.647 36.1342 228.034 36.0762 228.419 36.1097C228.804 36.143 229.176 36.2667 229.508 36.4715C230 36.781 230.368 37.2607 230.548 37.8252C230.728 38.3895 230.707 39.0015 230.489 39.5515Z" fill="white"/>
<path d="M219.797 43.2016C219.079 43.6469 218.391 44.1424 217.738 44.6841C217.3 45.0339 216.88 45.4059 216.478 45.7991C215.964 46.3056 215.511 46.8749 215.129 47.4941C214.772 48.0704 214.462 48.6769 214.204 49.3066C213.813 50.2696 213.501 51.2649 213.271 52.2816C212.81 54.4749 212.533 56.7046 212.44 58.9466C210.737 58.0686 209.369 56.6244 208.558 54.8466C207.747 53.0689 207.539 51.0611 207.968 49.1466C208.397 47.2324 209.438 45.5226 210.924 44.2931C212.409 43.0636 214.252 42.3859 216.156 42.3691C216.304 42.3691 216.442 42.3691 216.59 42.3691C217.702 42.4241 218.792 42.7071 219.797 43.2016Z" fill="#95CECE"/>
<path d="M215.127 47.4955C214.77 48.072 214.46 48.6782 214.202 49.308C213.811 50.271 213.499 51.2662 213.269 52.283C212.765 51.5605 212.336 50.6955 212.268 49.8305C212.245 49.5195 212.284 49.207 212.382 48.912C212.481 48.6172 212.637 48.3465 212.842 48.1167C213.047 47.887 213.295 47.7035 213.571 47.5772C213.848 47.451 214.146 47.385 214.449 47.383C214.679 47.38 214.909 47.4182 215.127 47.4955Z" fill="white"/>
<g opacity="0.72">
<path opacity="0.72" d="M268.186 41.9105C271.713 41.9105 274.572 38.9602 274.572 35.3205C274.572 31.681 271.713 28.7305 268.186 28.7305C264.66 28.7305 261.801 31.681 261.801 35.3205C261.801 38.9602 264.66 41.9105 268.186 41.9105Z" fill="#95CECE"/>
<path opacity="0.72" d="M270.961 36.4943C271.118 36.3268 271.25 36.1366 271.353 35.9293C271.535 35.5706 271.584 35.1556 271.49 34.7623C271.397 34.3691 271.167 34.0248 270.845 33.7943C270.635 33.6451 270.395 33.5476 270.143 33.5098C269.89 33.4723 269.633 33.4951 269.391 33.5768C269.378 33.2073 269.248 32.8523 269.022 32.5656C268.796 32.2788 268.486 32.0758 268.138 31.9871C267.79 31.8986 267.424 31.9291 267.095 32.0741C266.765 32.2193 266.491 32.4713 266.312 32.7918C265.934 33.4643 265.866 34.3593 265.925 35.1218C265.955 35.5206 266.025 35.9151 266.133 36.2993C266.186 36.4943 266.47 37.6143 266.663 37.6493C267.923 37.8693 269.953 37.5618 270.961 36.4943Z" fill="white"/>
</g>
<g opacity="0.72">
<path opacity="0.72" d="M265.34 109.101C267.858 109.101 269.899 106.995 269.899 104.396C269.899 101.798 267.858 99.6914 265.34 99.6914C262.822 99.6914 260.781 101.798 260.781 104.396C260.781 106.995 262.822 109.101 265.34 109.101Z" fill="#95CECE"/>
<path opacity="0.72" d="M267.317 105.244C267.429 105.125 267.523 104.988 267.596 104.839C267.726 104.584 267.761 104.288 267.694 104.008C267.628 103.727 267.464 103.482 267.235 103.317C267.084 103.209 266.912 103.139 266.73 103.112C266.549 103.085 266.364 103.102 266.191 103.162C266.18 102.899 266.087 102.647 265.925 102.443C265.764 102.24 265.543 102.095 265.296 102.032C265.049 101.969 264.788 101.99 264.553 102.092C264.319 102.194 264.122 102.372 263.994 102.599C263.747 103.115 263.65 103.693 263.715 104.264C263.737 104.549 263.788 104.83 263.865 105.104C263.904 105.242 264.107 106.044 264.243 106.067C265.149 106.217 266.598 105.994 267.317 105.244Z" fill="white"/>
</g>
<path d="M255.198 47.9165L252.164 54.5382C251.062 56.941 252.057 59.81 254.386 60.9462L260.802 64.0777C263.13 65.214 265.91 64.1872 267.011 61.7847L270.046 55.1627C271.147 52.76 270.152 49.891 267.824 48.7547L261.407 45.6232C259.079 44.487 256.299 45.5137 255.198 47.9165Z" fill="#95CECE"/>
<path d="M268.311 56.3237L266.113 61.1187C265.654 62.1202 264.828 62.8932 263.817 63.2679C262.807 63.6427 261.693 63.5892 260.721 63.1187L255.149 60.3987C254.179 59.9237 253.431 59.0717 253.068 58.0289C252.704 56.9862 252.756 55.8374 253.211 54.8337L253.359 54.5087C254.873 53.2587 257.492 51.5787 258.446 53.8712C259.822 57.1712 261.61 56.1037 263.897 54.7237C265.815 53.5562 268.107 53.1687 268.311 56.3237Z" fill="white"/>
<path d="M259.68 51.2236C260.627 51.2236 261.395 50.4311 261.395 49.4536C261.395 48.4761 260.627 47.6836 259.68 47.6836C258.733 47.6836 257.965 48.4761 257.965 49.4536C257.965 50.4311 258.733 51.2236 259.68 51.2236Z" fill="white"/>
<path d="M276.369 69.5617L272.372 78.2832C270.923 81.4459 272.232 85.2227 275.297 86.7184L283.748 90.8429C286.813 92.3387 290.472 90.9872 291.922 87.8242L295.918 79.1029C297.368 75.9399 296.058 72.1634 292.993 70.6677L284.542 66.5432C281.477 65.0474 277.818 66.3989 276.369 69.5617Z" fill="#95CECE"/>
<path d="M293.639 80.634L290.732 86.9465C290.125 88.2633 289.037 89.2783 287.706 89.7698C286.376 90.261 284.911 90.189 283.632 89.5688L276.306 85.994C275.03 85.367 274.047 84.2443 273.571 82.8713C273.094 81.4983 273.164 79.9865 273.765 78.6665L273.961 78.239C275.955 76.599 279.4 74.3815 280.657 77.399C282.471 81.744 284.824 80.3388 287.835 78.5213C290.352 76.9938 293.373 76.479 293.639 80.634Z" fill="white"/>
<path d="M282.269 73.9178C283.516 73.9178 284.527 72.8746 284.527 71.5878C284.527 70.3008 283.516 69.2578 282.269 69.2578C281.023 69.2578 280.012 70.3008 280.012 71.5878C280.012 72.8746 281.023 73.9178 282.269 73.9178Z" fill="white"/>
<path d="M292.79 44.7133C293.127 45.3528 293.372 46.039 293.517 46.7508C293.775 48.061 293.699 49.4175 293.297 50.6883C292.895 51.959 292.18 53.1005 291.223 54.0008C290.465 54.6933 289.498 55.2358 288.728 55.9608C288.168 56.4608 287.756 57.1133 287.538 57.8433C287.498 58.0925 287.401 58.328 287.255 58.5308C286.804 59.0308 286.366 58.2458 285.976 58.1033C285.35 57.8938 284.672 57.9285 284.069 58.2008C282.486 58.8743 280.727 58.9643 279.087 58.4558C277.447 57.9473 276.027 56.8713 275.066 55.409C274.104 53.9465 273.661 52.187 273.809 50.4265C273.958 48.6663 274.69 47.0123 275.881 45.7433C277.068 44.4933 278.624 43.7008 280.123 42.8808C281.446 42.1558 282.761 41.3808 284.195 40.9533C287.572 39.9183 291.16 41.6458 292.79 44.7133Z" fill="#95CECE"/>
<path d="M279.241 53.753C280.133 53.753 280.857 53.0065 280.857 52.0855C280.857 51.1645 280.133 50.418 279.241 50.418C278.348 50.418 277.625 51.1645 277.625 52.0855C277.625 53.0065 278.348 53.753 279.241 53.753Z" fill="white"/>
<path d="M283.596 51.3506C284.489 51.3506 285.212 50.6041 285.212 49.6831C285.212 48.7621 284.489 48.0156 283.596 48.0156C282.704 48.0156 281.98 48.7621 281.98 49.6831C281.98 50.6041 282.704 51.3506 283.596 51.3506Z" fill="white"/>
<path d="M287.678 49.0967C288.571 49.0967 289.294 48.3502 289.294 47.4292C289.294 46.5085 288.571 45.7617 287.678 45.7617C286.786 45.7617 286.062 46.5085 286.062 47.4292C286.062 48.3502 286.786 49.0967 287.678 49.0967Z" fill="white"/>
<path d="M342.964 157.009V157.049L342.365 171.244L342.031 179.021C342.031 178.734 342.046 178.436 342.063 178.149C337.927 176.721 332.615 174.691 328.516 173.256C320.449 170.416 314.371 168.234 307.145 166.519C306.709 164.346 306.297 159.686 308.325 152.884C311.232 143.179 312.189 133.331 310.711 131.429C310.697 131.407 310.679 131.388 310.658 131.374C309.606 127.461 306.825 129.994 306.825 129.994C306.825 129.994 306.842 130.034 306.849 130.056C306.271 129.066 305.635 128.113 304.945 127.201C304.968 127.06 305.005 126.921 305.054 126.786C305.948 124.011 310.711 123.344 310.711 123.344C317.683 123.874 321.35 127.081 323.201 131.294C324.831 136.611 323.87 142.376 323.659 147.831C323.574 150.196 323.247 153.831 324.996 155.746C326.612 158.899 330.677 157.536 331.779 157.191C332.138 157.086 333.068 157.021 334.289 156.981C336.777 156.919 340.437 156.966 342.668 157.006C342.777 157.009 342.872 157.009 342.964 157.009Z" fill="#95CECE"/>
<path d="M246.473 29.4219C245.965 29.5386 245.444 29.5789 244.925 29.5419C243.974 29.4644 243.058 29.1329 242.267 28.5804C241.477 28.0276 240.839 27.2726 240.417 26.3893C240.095 25.6918 239.932 24.8743 239.581 24.1643C239.352 23.6545 238.988 23.2213 238.532 22.9143C238.369 22.8342 238.227 22.7151 238.118 22.5668C237.876 22.1368 238.496 21.9768 238.673 21.7218C238.943 21.307 239.057 20.8049 238.995 20.3093C238.851 19.0122 239.146 17.7037 239.829 16.605C240.512 15.5063 241.542 14.6849 242.745 14.2797C243.948 13.8745 245.249 13.9105 246.429 14.3814C247.609 14.8524 248.595 15.7295 249.22 16.8643C249.835 17.9868 250.061 19.2843 250.318 20.5468C250.545 21.6593 250.802 22.7768 250.802 23.9143C250.824 26.5869 248.908 28.8569 246.473 29.4219Z" fill="#95CECE"/>
<path d="M244.182 19.248C244.839 19.248 245.371 18.6984 245.371 18.0205C245.371 17.3425 244.839 16.793 244.182 16.793C243.525 16.793 242.992 17.3425 242.992 18.0205C242.992 18.6984 243.525 19.248 244.182 19.248Z" fill="white"/>
<path d="M244.939 22.9198C245.596 22.9198 246.129 22.3703 246.129 21.6923C246.129 21.0144 245.596 20.4648 244.939 20.4648C244.282 20.4648 243.75 21.0144 243.75 21.6923C243.75 22.3703 244.282 22.9198 244.939 22.9198Z" fill="white"/>
<path d="M245.658 26.3652C246.315 26.3652 246.848 25.8156 246.848 25.1377C246.848 24.4597 246.315 23.9102 245.658 23.9102C245.001 23.9102 244.469 24.4597 244.469 25.1377C244.469 25.8156 245.001 26.3652 245.658 26.3652Z" fill="white"/>
<g opacity="0.72">
<path opacity="0.72" d="M317.392 74.0506C322.385 74.0506 326.433 69.8734 326.433 64.7206C326.433 59.5679 322.385 55.3906 317.392 55.3906C312.399 55.3906 308.352 59.5679 308.352 64.7206C308.352 69.8734 312.399 74.0506 317.392 74.0506Z" fill="#95CECE"/>
<path opacity="0.72" d="M317.731 69.0772C318.036 69.1774 318.353 69.2289 318.673 69.2297C319.228 69.2372 319.767 69.0352 320.189 68.6619C320.61 68.2887 320.885 67.7697 320.962 67.2022C321.012 66.8317 320.978 66.4544 320.862 66.0999C320.747 65.7454 320.553 65.4237 320.296 65.1597C320.739 64.9057 321.09 64.5099 321.296 64.0322C321.502 63.5544 321.553 63.0207 321.439 62.5109C321.326 62.0012 321.055 61.5434 320.667 61.2064C320.28 60.8694 319.797 60.6714 319.291 60.6422C318.227 60.5797 317.089 61.0622 316.19 61.6222C315.722 61.9174 315.284 62.2599 314.882 62.6447C314.676 62.8397 313.484 63.9272 313.567 64.1997C314.1 65.9922 315.773 68.4497 317.731 69.0772Z" fill="white"/>
</g>
<path d="M321.595 102.801C321.029 103.648 320.347 104.406 319.57 105.051C318.13 106.224 316.42 106.993 314.606 107.28C312.793 107.568 310.938 107.364 309.223 106.691C307.888 106.143 306.609 105.226 305.228 104.691C304.259 104.28 303.197 104.159 302.164 104.341C301.833 104.447 301.483 104.471 301.142 104.411C300.245 104.141 300.924 103.071 300.849 102.471C300.705 101.521 300.231 100.659 299.514 100.046C297.666 98.4134 296.421 96.1721 295.991 93.7016C295.56 91.2309 295.971 88.6826 297.152 86.4884C298.334 84.2941 300.214 82.5886 302.474 81.6611C304.734 80.7334 307.236 80.6406 309.555 81.3981C311.847 82.1481 313.806 83.6706 315.769 85.1031C317.498 86.3656 319.279 87.6031 320.727 89.1831C324.141 92.9356 324.313 98.7206 321.595 102.801Z" fill="#95CECE"/>
<path d="M303.924 92.2005C305.187 92.2005 306.21 91.144 306.21 89.8405C306.21 88.5372 305.187 87.4805 303.924 87.4805C302.66 87.4805 301.637 88.5372 301.637 89.8405C301.637 91.144 302.66 92.2005 303.924 92.2005Z" fill="white"/>
<path d="M309.642 96.347C310.905 96.347 311.929 95.2905 311.929 93.987C311.929 92.6837 310.905 91.627 309.642 91.627C308.379 91.627 307.355 92.6837 307.355 93.987C307.355 95.2905 308.379 96.347 309.642 96.347Z" fill="white"/>
<path d="M315.009 100.234C316.273 100.234 317.296 99.1772 317.296 97.8737C317.296 96.5704 316.273 95.5137 315.009 95.5137C313.746 95.5137 312.723 96.5704 312.723 97.8737C312.723 99.1772 313.746 100.234 315.009 100.234Z" fill="white"/>
<g opacity="0.54">
<path opacity="0.54" d="M252.147 32.7684C252.117 33.1759 252.056 33.5804 251.965 33.9784L250.953 38.5109C250.643 39.8984 250.294 41.3609 249.332 42.3809C247.539 44.2734 244.538 43.8409 242.035 43.2659L235.892 41.8584C234.482 41.5334 233.048 41.2034 231.774 40.4784C230.5 39.7534 229.414 38.5759 229.109 37.1134C228.894 36.0359 229.126 34.9234 229.351 33.8484L230.308 29.4934C230.616 28.0684 230.965 26.5609 231.96 25.5259C233.736 23.6784 236.677 24.0984 239.141 24.6484L245.422 26.0559C249.216 26.9134 252.45 28.7284 252.147 32.7684Z" fill="#95CECE"/>
<path opacity="0.54" d="M243.678 32.8904C243.941 33.1431 244.134 33.4626 244.239 33.8171C244.345 34.1716 244.358 34.5484 244.277 34.9096C244.197 35.2709 244.025 35.6039 243.781 35.8751C243.536 36.1464 243.226 36.3466 242.883 36.4554L241.011 37.0479L239.14 37.6379C238.796 37.7471 238.43 37.7606 238.08 37.6771C237.729 37.5936 237.405 37.4161 237.142 37.1626C236.879 36.9091 236.685 36.5884 236.581 36.2329C236.476 35.8774 236.464 35.4996 236.546 35.1379L236.984 33.1679L237.423 31.2004C237.504 30.8391 237.675 30.5061 237.921 30.2351C238.166 29.9639 238.475 29.7639 238.819 29.6554C239.163 29.5466 239.528 29.5331 239.878 29.6161C240.228 29.6991 240.551 29.8756 240.814 30.1279L242.246 31.5054L243.678 32.8904Z" fill="white"/>
</g>
<g opacity="0.54">
<path opacity="0.54" d="M321.19 41.4947C321.159 41.9022 321.099 42.3069 321.008 42.7047L319.996 47.2447C319.686 48.6322 319.337 50.0947 318.375 51.1122C316.582 53.0072 313.581 52.5722 311.078 51.9997L304.935 50.5897C303.525 50.2672 302.091 49.9347 300.817 49.2122C299.543 48.4897 298.457 47.3072 298.152 45.8472C297.937 44.7697 298.169 43.6572 298.394 42.5822L299.354 38.2447C299.659 36.8172 300.008 35.3122 301.003 34.2747C302.779 32.4297 305.72 32.8472 308.184 33.3997L314.455 34.7972C318.259 35.6447 321.493 37.4622 321.19 41.4947Z" fill="#95CECE"/>
<path opacity="0.54" d="M312.717 41.6219C312.979 41.8749 313.173 42.1946 313.278 42.5491C313.383 42.9036 313.396 43.2806 313.316 43.6419C313.235 44.0034 313.064 44.3364 312.82 44.6081C312.575 44.8796 312.265 45.0801 311.922 45.1894L310.05 45.7794L308.179 46.3719C307.835 46.4809 307.469 46.4944 307.119 46.4109C306.768 46.3276 306.444 46.1501 306.181 45.8966C305.918 45.6429 305.724 45.3224 305.62 44.9669C305.515 44.6114 305.503 44.2336 305.585 43.8719L306.023 41.9044L306.462 39.9369C306.543 39.5756 306.715 39.2426 306.96 38.9714C307.205 38.7001 307.514 38.5004 307.858 38.3916C308.201 38.2831 308.567 38.2694 308.917 38.3524C309.267 38.4354 309.59 38.6119 309.853 38.8644L311.285 40.2419L312.717 41.6219Z" fill="white"/>
</g>
<g opacity="0.54">
<path opacity="0.54" d="M292.195 102.314C292.18 102.503 292.151 102.692 292.108 102.876L291.638 104.994C291.493 105.639 291.33 106.319 290.882 106.794C290.049 107.676 288.651 107.474 287.491 107.206L284.63 106.551C283.965 106.432 283.321 106.216 282.716 105.909C282.414 105.753 282.148 105.532 281.935 105.262C281.722 104.992 281.567 104.678 281.48 104.341C281.415 103.832 281.453 103.314 281.594 102.821L282.03 100.796C282.173 100.134 282.336 99.4315 282.801 98.949C283.627 98.089 284.995 98.284 286.141 98.5415L289.068 99.1965C290.829 99.5865 292.336 100.431 292.195 102.314Z" fill="#95CECE"/>
<path opacity="0.54" d="M288.247 102.371C288.369 102.489 288.46 102.637 288.509 102.803C288.558 102.968 288.564 103.143 288.527 103.312C288.489 103.48 288.409 103.635 288.295 103.762C288.181 103.888 288.036 103.981 287.876 104.031L287.006 104.306L286.134 104.581C285.974 104.633 285.804 104.64 285.64 104.602C285.477 104.563 285.326 104.481 285.203 104.363C285.08 104.246 284.989 104.097 284.94 103.931C284.891 103.766 284.885 103.59 284.923 103.421L285.136 102.494L285.34 101.576C285.377 101.407 285.456 101.252 285.57 101.125C285.685 100.998 285.829 100.904 285.989 100.854C286.149 100.803 286.32 100.797 286.483 100.836C286.646 100.875 286.797 100.958 286.919 101.076L287.585 101.716L288.247 102.371Z" fill="white"/>
</g>
<g opacity="0.54">
<path opacity="0.54" d="M262.037 14.5276C262.236 14.6343 262.427 14.7554 262.609 14.8901L264.644 16.4251C265.269 16.8926 265.92 17.4001 266.216 18.1351C266.766 19.5026 265.889 21.0001 265.053 22.2001L263.001 25.1501C262.562 25.8524 262.027 26.4856 261.412 27.0301C260.772 27.5301 259.944 27.8651 259.152 27.6976C258.568 27.5776 258.064 27.1976 257.58 26.8501L255.617 25.3976C254.975 24.9226 254.302 24.3976 254.004 23.6476C253.474 22.2976 254.329 20.8301 255.145 19.6476L257.226 16.6226C258.474 14.7976 260.089 13.4801 262.037 14.5276Z" fill="#95CECE"/>
<path opacity="0.54" d="M260.234 19.0505C260.417 18.9668 260.618 18.9341 260.817 18.9556C261.016 18.9771 261.206 19.0521 261.368 19.173C261.53 19.294 261.658 19.4566 261.74 19.6448C261.822 19.833 261.855 20.0401 261.836 20.2455L261.719 21.3705L261.603 22.4955C261.582 22.7016 261.508 22.8984 261.39 23.0659C261.271 23.2334 261.112 23.3657 260.929 23.4496C260.745 23.5335 260.543 23.566 260.343 23.5437C260.144 23.5215 259.953 23.4454 259.791 23.323L258.907 22.658L258.023 21.9955C257.86 21.8735 257.731 21.7094 257.649 21.5197C257.568 21.33 257.536 21.1214 257.557 20.915C257.579 20.7086 257.652 20.5116 257.771 20.344C257.89 20.1764 258.049 20.0441 258.233 19.9605L259.234 19.503L260.234 19.0505Z" fill="white"/>
</g>
<path d="M357.945 203.245C357.943 203.288 357.938 203.332 357.93 203.375C357.926 203.385 357.926 203.397 357.93 203.407C357.589 205.742 356.65 207.94 355.21 209.775C355.193 209.79 355.185 209.815 355.171 209.83C352.957 212.677 349.747 214.732 346.498 216.022C343.18 217.355 339.815 217.892 337.419 217.707H337.366C334.434 217.482 331.217 217.875 328.402 218.42C328.107 218.477 327.811 218.532 327.516 218.597C325.658 218.982 323.824 219.462 322.007 219.992L321.665 220.09L321.438 220.152C319.742 208.692 318.594 196.957 318.594 196.957L353.235 203.31C354.794 203.602 356.393 203.58 357.945 203.245Z" fill="#95CECE"/>
<path d="M286.803 148.768C284.982 150.633 282.542 150.993 280.146 151.543C274.703 152.793 270.139 151.373 269.899 144.915C269.744 140.76 270.171 136.603 272.608 133.153C275.527 129.02 280.011 126.268 284.478 124.258C284.478 124.258 286.527 135.078 295.863 135.548C305.2 136.018 302.927 148.72 291.988 146.603" stroke="#1C4E79" stroke-width="1.1175" stroke-miterlimit="10"/>
<path d="M293.824 152.015C294.066 152.015 294.289 152.015 294.515 151.997C294.569 151.993 294.625 151.993 294.679 151.997H294.701L295.13 151.957" stroke="#1C4E79" stroke-width="1.1175" stroke-miterlimit="10"/>
<path d="M304.166 125.586C302.635 123.708 300.806 122.113 298.757 120.868C298.529 120.713 298.293 120.571 298.049 120.443C297.807 120.301 297.565 120.163 297.323 120.036C296.811 119.763 296.281 119.506 295.738 119.286C292.535 117.901 289.095 117.193 285.622 117.203C266.94 117.203 272.131 133.886 272.131 133.886" stroke="#1C4E79" stroke-width="1.1175" stroke-miterlimit="10"/>
<path d="M307.264 166.355C306.619 162.81 307.426 157.292 308.32 152.88C309.122 148.95 309.999 145.902 309.999 145.902C311.321 137.882 311.266 133.582 310.653 131.37C309.601 127.462 306.82 129.995 306.82 129.995" stroke="#1C4E79" stroke-width="1.1175" stroke-miterlimit="10"/>
<path d="M310.657 131.369C309.605 127.462 306.824 129.994 306.824 129.994C306.344 128.865 305.75 127.79 305.053 126.787C304.772 126.384 304.477 125.99 304.167 125.607C304.998 123.329 307.214 121.972 309.496 121.789C315.487 121.314 321.393 125.407 323.198 131.289C324.828 136.607 323.866 142.372 323.656 147.827C323.571 150.192 323.244 153.827 324.993 155.742C325.085 155.839 325.172 155.927 325.271 156.014C326.725 157.307 329.041 157.379 331.786 157.187C332.585 157.129 333.426 157.059 334.295 156.977C336.96 156.727 339.867 156.512 342.675 157.002L342.953 157.049C342.868 161.774 342.587 166.514 342.355 171.239C342.231 173.539 342.113 175.842 342.052 178.144C337.917 176.717 332.604 174.687 328.505 173.252L326.32 172.474C319.317 170.012 313.707 168.069 307.156 166.514C304.63 165.912 301.965 165.374 299.019 164.877L295.887 164.309C295.677 164.272 295.487 164.158 295.35 163.989C295.213 163.82 295.139 163.607 295.141 163.387V151.949C297.232 151.766 299.255 151.086 301.049 149.962C302.844 148.837 304.362 147.3 305.485 145.469C308.515 140.439 308.803 135.292 307.146 130.774C307.087 130.594 307.019 130.417 306.941 130.244C306.922 130.192 306.901 130.141 306.878 130.092C306.878 130.077 306.863 130.052 306.856 130.034" stroke="#1C4E79" stroke-width="1.1175" stroke-miterlimit="10"/>
<path d="M229.801 172.474C230.77 164.724 231.216 156.842 232.155 149.047" stroke="#1C4E79" stroke-width="1.1175" stroke-miterlimit="10"/>
<path d="M232.309 147.826C232.573 145.716 232.885 143.606 233.278 141.521C233.292 141.419 233.309 141.321 233.331 141.226C233.549 139.991 233.791 138.764 234.058 137.536C234.867 133.864 237.691 131.176 239.7 128.184L239.823 127.864C244.156 121.359 246.554 113.69 246.725 105.799C246.773 102.944 246.664 97.2986 243.493 96.1336C241.713 95.4761 239.823 96.7611 238.837 98.2286C238.432 98.8344 238.107 99.4926 237.868 100.186" stroke="#1C4E79" stroke-width="1.1175" stroke-miterlimit="10"/>
<path d="M261.107 238.994C253.372 216.329 257.039 191.569 257.039 191.569L245.632 191.939L215.54 192.924C213.772 192.984 212.013 192.652 210.381 191.95C208.748 191.248 207.281 190.193 206.078 188.856C204.875 187.518 203.964 185.93 203.407 184.198C202.849 182.466 202.659 180.631 202.848 178.816L211.787 145.139" stroke="#1C4E79" stroke-width="1.1175" stroke-miterlimit="10"/>
<path d="M212.219 143.494L213.004 140.544L213.914 137.199" stroke="#1C4E79" stroke-width="1.1175" stroke-miterlimit="10"/>
<path d="M214.686 134.319L215.207 132.387C215.897 129.821 215.726 127.09 214.723 124.637L213.688 122.087C213.012 119.962 212.802 118.934 213.65 116.857C214.051 115.877 214.614 114.976 215.314 114.194C217.356 111.869 220.231 110.714 223.194 110.319C226.157 109.924 229.427 110.232 231.811 112.214C233.429 113.559 234.96 116.762 233.902 118.854C233.134 120.377 231.508 120.819 230.125 120.274C229.641 120.087 229.205 119.788 228.851 119.399C227.218 117.634 223.763 117.249 222.552 118.967" stroke="#1C4E79" stroke-width="1.1175" stroke-miterlimit="10"/>
<path d="M341.98 180.952C341.98 180.325 342.002 179.702 342.026 179.067V179.017C342.026 178.73 342.041 178.432 342.058 178.145" stroke="#1C4E79" stroke-width="1.1175" stroke-miterlimit="10"/>
<path d="M338.877 120.902C336.041 122.467 332.557 126.402 338.434 135.652C340.372 138.7 342.419 141.995 342.707 145.757C342.976 149.517 343.062 153.289 342.964 157.057" stroke="#1C4E79" stroke-width="1.1175" stroke-miterlimit="10"/>
<path d="M311.363 195.645L318.107 196.88L318.592 196.967L321.685 197.537L353.229 203.32C354.79 203.613 356.392 203.591 357.945 203.255C360.643 202.668 363.073 201.17 364.851 198.996C366.629 196.822 367.652 194.097 367.759 191.255L363.098 151.877L362.066 143.472C361.738 140.829 362.288 138.149 363.626 135.87L365.009 133.495C365.009 133.495 367.417 129.87 363.204 129.605C360.935 129.467 358.573 130.105 356.521 131.065C355.348 131.602 353.701 132.565 353.04 133.887C352.771 134.388 352.68 134.97 352.783 135.532C353.267 138.115 356.417 139.205 358.495 138.115" stroke="#1C4E79" stroke-width="1.1175" stroke-miterlimit="10"/>
<path d="M364.596 129.793C364.596 129.793 366.977 128.33 365.366 124.733C364.795 123.453 363.063 122.565 359.334 122.81C349.402 123.463 345.512 134.003 353.053 133.888" stroke="#1C4E79" stroke-width="1.1175" stroke-miterlimit="10"/>
<path d="M362.33 122.793C364.535 119.658 360.635 116.658 357.793 116.76C355.114 116.858 352.403 117.88 350.056 119.16C346.79 120.94 342.575 124.388 343.781 128.75C344.138 130.035 346.955 131.623 348.796 130.705" stroke="#1C4E79" stroke-width="1.1175" stroke-miterlimit="10"/>
<path d="M343.572 127.2C343.572 127.2 343.572 127.2 343.572 127.215C342.034 130.247 334.752 127.215 338.863 120.902C339.823 119.506 340.975 118.26 342.281 117.205C352.533 108.56 354.825 117.35 354.81 116.827" stroke="#1C4E79" stroke-width="1.1175" stroke-miterlimit="10"/>
<path d="M348.035 130.773C348.035 130.773 351.785 133.523 350.634 138.106" stroke="#1C4E79" stroke-width="1.1175" stroke-miterlimit="10"/>
<path d="M216.01 108.777C215.768 107.792 215.8 106.549 216.367 104.959C217.183 102.674 219.562 101.174 221.878 100.187C222.723 99.8268 223.573 99.5293 224.3 99.2968C226.827 98.4968 229.601 98.0718 232.294 98.3518C233.202 98.4426 234.1 98.6201 234.976 98.8818C235.987 99.1826 236.954 99.6216 237.852 100.187C240.066 101.592 241.565 103.724 242.466 106.524C243.251 108.939 243.554 111.809 241.611 113.317" stroke="#1C4E79" stroke-width="1.1175" stroke-miterlimit="10"/>
<path d="M241.792 145.452L241.077 149.022C241.053 149.142 241.007 149.256 240.939 149.357C240.872 149.458 240.786 149.544 240.686 149.61C240.585 149.675 240.473 149.72 240.356 149.74C240.239 149.76 240.119 149.756 240.004 149.727C237.254 149.054 234.844 148.429 232.31 147.827C231.053 147.522 229.754 147.234 228.379 146.937C223.001 145.789 217.63 144.494 212.223 143.494C209.963 143.077 207.7 142.714 205.423 142.442C204.149 142.289 202.858 142.227 201.576 142.129C201.296 142.123 201.025 142.028 200.799 141.857C199.587 140.942 200.799 137.967 201.063 136.732C201.063 136.717 201.063 136.699 201.063 136.684C201.249 135.737 206.525 136.009 213.902 137.197C216.474 137.614 219.301 138.134 222.264 138.762C226.428 139.644 230.183 140.597 233.253 141.512C233.781 141.672 234.287 141.824 234.769 141.977C234.769 141.977 234.769 141.977 234.784 141.977C235.396 142.177 235.973 142.369 236.516 142.562C239.943 143.769 241.918 144.819 241.792 145.452Z" fill="#95CECE"/>
<path d="M241.792 145.452L241.077 149.022C241.053 149.142 241.007 149.256 240.939 149.357C240.872 149.458 240.786 149.544 240.686 149.61C240.585 149.675 240.473 149.72 240.356 149.74C240.239 149.76 240.119 149.756 240.004 149.727C237.254 149.054 234.844 148.429 232.31 147.827C231.053 147.522 229.754 147.234 228.379 146.937C223.001 145.789 217.63 144.494 212.223 143.494C209.963 143.077 207.7 142.714 205.423 142.442C204.149 142.289 202.858 142.227 201.576 142.129C201.296 142.123 201.025 142.028 200.799 141.857C199.587 140.942 200.799 137.967 201.063 136.732C201.063 136.717 201.063 136.699 201.063 136.684C201.249 135.737 206.525 136.009 213.902 137.197C216.474 137.614 219.301 138.134 222.264 138.762C226.428 139.644 230.183 140.597 233.253 141.512C233.781 141.672 234.287 141.824 234.769 141.977C234.769 141.977 234.769 141.977 234.784 141.977C235.396 142.177 235.973 142.369 236.516 142.562C239.943 143.769 241.918 144.819 241.792 145.452Z" stroke="#1C4E79" stroke-width="1.1175" stroke-miterlimit="10"/>
<path d="M234.243 116.932L234.931 118.354C235.795 119.332 236.992 119.949 238.632 119.524C241.849 118.699 242.167 115.947 241.607 113.317C241.511 112.839 241.386 112.368 241.234 111.907C240.481 109.587 239.315 107.719 237.683 106.357C236.522 105.387 235.182 104.674 233.744 104.262C232.572 103.912 231.363 103.713 230.144 103.669C227.749 103.584 225.357 103.922 223.073 104.669C220.788 105.392 217.663 106.634 216.001 108.767C215.629 109.235 215.334 109.764 215.129 110.332C214.618 111.767 214.531 112.929 214.71 113.869L214.882 114.744" stroke="#1C4E79" stroke-width="1.1175" stroke-miterlimit="10"/>
<path d="M235.142 98.9371L235.942 95.5196L236.891 91.4946C237.025 90.9141 237.042 90.3116 236.941 89.7241C236.839 89.1369 236.621 88.5774 236.301 88.0806C235.981 87.5839 235.565 87.1604 235.079 86.8369C234.593 86.5131 234.048 86.2964 233.478 86.1996C233.255 86.1614 233.029 86.1431 232.802 86.1446C231.843 86.1421 230.913 86.4791 230.166 87.0994C229.42 87.7196 228.901 88.5854 228.698 89.5521C228.456 90.7171 228.153 92.1346 227.819 93.7321C227.502 95.2471 227.15 96.9071 226.777 98.6571" stroke="#1C4E79" stroke-width="1.1175" stroke-miterlimit="10"/>
<path d="M225.648 104.029V104.021" stroke="#1C4E79" stroke-width="0.745" stroke-miterlimit="10"/>
<path d="M222.563 118.965C222.321 120.192 222.183 120.965 222.19 121.097C222.19 121.097 222.19 121.097 222.19 121.115C221.141 128.39 218.055 132.28 214.698 134.307C212.644 135.513 210.35 136.219 207.992 136.37" stroke="#1C4E79" stroke-width="1.1175" stroke-miterlimit="10"/>
<path d="M230.147 120.271C230.147 120.271 224.522 135.744 233.318 141.229C233.783 141.517 234.269 141.768 234.771 141.979C235.373 142.237 235.994 142.443 236.629 142.596" stroke="#1C4E79" stroke-width="1.1175" stroke-miterlimit="10"/>
<path d="M240.61 149.654C240.61 149.654 240.649 150.369 232.153 149.047C229.246 148.597 225.339 147.907 220.084 146.864C216.79 146.214 214.052 145.637 211.785 145.139C199.871 142.509 200.794 141.859 200.794 141.859" stroke="#1C4E79" stroke-width="1.1175" stroke-miterlimit="10"/>
<path d="M264.548 62.6827C262.736 72.5952 256.767 83.0302 249.528 89.7277C246.568 92.4777 243.126 94.3952 239.41 95.1502C238.269 95.3894 237.109 95.5127 235.946 95.5177L236.888 91.4952C237.119 90.5044 237.006 89.4614 236.569 88.5477C236.132 87.6339 235.398 86.9077 234.494 86.4952C234.168 86.3507 233.827 86.2457 233.477 86.1827C233.253 86.1444 233.026 86.1259 232.799 86.1277C231.838 86.1262 230.906 86.4652 230.159 87.0882C229.412 87.7114 228.895 88.5807 228.695 89.5502C228.547 90.2802 228.368 91.1077 228.174 92.0127C218.969 85.7327 214.977 72.3002 215.42 61.3927C215.56 57.7677 215.754 52.9952 217.292 49.3052C217.812 47.9902 218.587 46.7989 219.57 45.8052C223.93 41.5702 229.899 39.6377 236.055 39.3477C240.779 39.5777 245.429 40.6554 249.795 42.5327C257.934 46.0802 266.428 52.3702 264.548 62.6827Z" fill="#95CECE"/>
<path d="M264.548 62.6827C262.736 72.5952 256.767 83.0302 249.528 89.7277C246.568 92.4777 243.126 94.3952 239.41 95.1502L240.27 91.4952C240.404 90.9149 240.421 90.3122 240.319 89.7247C240.217 89.1374 240 88.5779 239.68 88.0812C239.359 87.5844 238.943 87.1609 238.458 86.8374C237.972 86.5139 237.427 86.2969 236.856 86.2002C236.633 86.1619 236.407 86.1437 236.181 86.1452C235.596 86.1427 235.018 86.2679 234.485 86.5127C234.158 86.3682 233.817 86.2632 233.467 86.2002C233.243 86.1619 233.016 86.1434 232.789 86.1452C231.832 86.1449 230.905 86.4827 230.16 87.1022C229.415 87.7217 228.898 88.5854 228.695 89.5502C228.547 90.2802 228.368 91.1077 228.174 92.0127C218.969 85.7327 214.977 72.3002 215.42 61.3927C215.56 57.7677 215.754 52.9952 217.292 49.3052C217.812 47.9902 218.587 46.7989 219.57 45.8052C223.93 41.5702 229.899 39.6377 236.055 39.3477C240.779 39.5777 245.429 40.6554 249.795 42.5327C257.934 46.0802 266.428 52.3702 264.548 62.6827Z" fill="#95CECE"/>
<path d="M264.549 62.6851C262.739 72.5976 256.77 83.0326 249.529 89.7301C245.653 93.3151 240.975 95.4951 235.939 95.5201L236.889 91.4951C237.023 90.9149 237.04 90.3121 236.938 89.7246C236.836 89.1374 236.619 88.5779 236.299 88.0811C235.978 87.5844 235.562 87.1609 235.077 86.8374C234.591 86.5136 234.046 86.2969 233.475 86.2001C233.252 86.1619 233.026 86.1436 232.8 86.1451C231.841 86.1426 230.911 86.4799 230.164 87.0999C229.417 87.7201 228.899 88.5859 228.696 89.5526C228.454 90.7176 228.151 92.1351 227.817 93.7326C216.455 88.5351 211.55 73.4326 212.041 61.3951C212.179 57.7701 212.373 52.9976 213.914 49.3076C214.432 47.9921 215.207 46.8006 216.191 45.8076C224.769 37.4826 239.529 38.0576 249.796 42.5351C257.933 46.0826 266.428 52.3701 264.549 62.6851Z" stroke="#1C4E79" stroke-width="1.1175" stroke-miterlimit="10"/>
<path d="M264.502 63.043C266.462 65.463 268.3 69.518 266.682 75.543C266.433 76.4937 266.077 77.4107 265.621 78.2755C263.048 83.0255 258.082 83.858 254.734 83.808" stroke="#1C4E79" stroke-width="1.1175" stroke-miterlimit="10"/>
<path d="M263.006 68.1094C264.701 70.2044 266.269 73.5219 265.615 78.2794C265.511 79.0431 265.358 79.7989 265.157 80.5419C262.734 89.5219 253.841 89.0794 250.789 88.6419" stroke="#1C4E79" stroke-width="1.1175" stroke-miterlimit="10"/>
<path d="M215.514 80.4937C213.62 80.8962 202.901 78.6263 202.77 69.4038C202.731 68.1538 202.96 66.9102 203.438 65.7612C205.117 61.8562 209.545 60.6213 212.096 60.2188" stroke="#1C4E79" stroke-width="1.1175" stroke-miterlimit="10"/>
<path d="M213.586 75.8713C211.648 75.9938 201.35 72.2013 202.467 63.0488C202.6 61.8091 202.995 60.6146 203.623 59.5488C205.803 55.9213 210.367 55.3388 212.944 55.2988" stroke="#1C4E79" stroke-width="1.1175" stroke-miterlimit="10"/>
<path d="M257.035 191.573C257.035 191.573 257.256 189.835 258.467 185.91" stroke="#1C4E79" stroke-width="1.1175" stroke-miterlimit="10"/>
<path d="M296.875 164.476V164.494C296.788 170.471 292.757 171.826 289.445 172.476C281.284 174.086 275.618 167.944 275.867 162.594" stroke="#1C4E79" stroke-width="1.1175" stroke-miterlimit="10"/>
<path d="M277.422 131.586C277.422 131.586 277.664 134.336 275.346 137.883C274.726 138.838 276.872 139.231 277.383 139.408" stroke="#1C4E79" stroke-width="1.1175" stroke-miterlimit="10"/>
<path d="M286.764 137.538C288.141 135.077 287.686 132.146 285.747 130.991C283.809 129.836 281.121 130.894 279.745 133.355C278.368 135.816 278.823 138.747 280.762 139.902C282.7 141.057 285.388 139.999 286.764 137.538Z" stroke="#1C4E79" stroke-width="1.1175" stroke-miterlimit="10"/>
<path d="M277.149 134.355C278.526 131.883 278.063 128.943 276.116 127.788C274.169 126.633 271.474 127.701 270.097 130.173C268.72 132.645 269.183 135.585 271.13 136.74C273.078 137.895 275.772 136.827 277.149 134.355Z" stroke="#1C4E79" stroke-width="1.12135" stroke-miterlimit="10"/>
<path d="M273.794 129.105C274.199 129.102 274.597 129.209 274.947 129.418C275.273 129.624 275.55 129.905 275.756 130.237C275.962 130.57 276.092 130.946 276.137 131.338C276.268 132.316 276.071 133.31 275.577 134.155C274.851 135.443 273.639 136.273 272.44 136.273C272.036 136.278 271.638 136.171 271.287 135.963C270.961 135.756 270.685 135.476 270.479 135.143C270.273 134.811 270.143 134.435 270.098 134.043C269.966 133.065 270.164 132.069 270.657 131.223C271.384 129.938 272.595 129.105 273.794 129.105ZM273.794 128.355C272.394 128.355 270.909 129.275 270.032 130.855C268.821 133.02 269.221 135.605 270.926 136.605C271.386 136.879 271.909 137.022 272.44 137.018C273.84 137.018 275.325 136.095 276.205 134.518C277.416 132.355 277.014 129.768 275.308 128.768C274.848 128.496 274.325 128.355 273.794 128.358V128.355Z" fill="white"/>
<path d="M276.204 134.52C277.415 132.356 277.015 129.778 275.31 128.763C273.606 127.747 271.243 128.678 270.032 130.843C268.821 133.007 269.221 135.585 270.925 136.6C272.63 137.616 274.993 136.684 276.204 134.52Z" fill="#95CECE"/>
<path d="M286.87 136.827C288.081 134.653 287.675 132.067 285.962 131.052C284.25 130.036 281.881 130.976 280.67 133.15C279.459 135.324 279.866 137.91 281.578 138.925C283.29 139.941 285.659 139.002 286.87 136.827Z" fill="#95CECE"/>
<path d="M277.383 132.494C277.383 132.494 278.11 131.377 279.75 133.354" stroke="#1C4E79" stroke-width="1.1175" stroke-miterlimit="10"/>
<path d="M284.517 135.225C284.912 134.691 284.876 133.979 284.438 133.634C284 133.289 283.325 133.441 282.931 133.975C282.536 134.508 282.571 135.22 283.01 135.565C283.448 135.911 284.123 135.758 284.517 135.225Z" fill="#353642"/>
<path d="M276.341 132.799C276.736 132.266 276.701 131.553 276.263 131.208C275.824 130.863 275.149 131.016 274.755 131.549C274.36 132.082 274.396 132.794 274.834 133.14C275.272 133.485 275.947 133.332 276.341 132.799Z" fill="#353642"/>
<path d="M282.354 143.867C277.393 148.217 274.789 144.342 274.789 144.342" stroke="#1C4E79" stroke-width="1.1175" stroke-miterlimit="10"/>
<path d="M229.801 168.873C234.091 168.08 238.42 167.46 242.671 166.65C244.745 166.257 246.817 165.875 248.888 165.505C258.112 163.885 267.323 162.625 276.649 162.585C277.099 162.585 277.535 162.417 277.874 162.112C278.214 161.807 278.435 161.386 278.497 160.925L278.669 159.593L279.757 151.285" stroke="#1C4E79" stroke-width="1.1175" stroke-miterlimit="10"/>
<path d="M295.125 151.949V151.909V151.709" stroke="#1C4E79" stroke-width="1.1175" stroke-miterlimit="10"/>
<path d="M-10.5 239L103.5 239L116.395 239L226.851 239L247.546 239L385.5 239" stroke="#1C4E79" stroke-width="1.1175" stroke-miterlimit="10"/>
<path d="M318.59 196.967C318.59 196.967 319.733 208.702 321.434 220.162C322.553 227.702 323.922 235.119 325.351 238.994" stroke="#1C4E79" stroke-width="1.1175" stroke-miterlimit="10"/>
<path d="M321.434 220.161L321.659 220.099L322.003 220.001C323.82 219.471 325.654 219.001 327.512 218.606C327.807 218.541 328.103 218.486 328.398 218.429C330.47 218.034 332.571 217.823 334.677 217.796C335.61 217.796 336.504 217.764 337.359 217.716H337.412C340.995 217.506 343.989 216.914 346.492 216.031C350.578 214.596 353.338 212.391 355.164 209.839C355.179 209.824 355.186 209.799 355.203 209.784C356.532 207.881 357.459 205.712 357.923 203.416C357.92 203.406 357.92 203.394 357.923 203.384L357.948 203.264" stroke="#1C4E79" stroke-width="1.1175" stroke-miterlimit="10"/>
<defs>
<clipPath id="clip0_948_52626">
<rect width="230" height="250" fill="white" transform="translate(-10.5)"/>
</clipPath>
</defs>
</svg>
