<svg width="25" height="24" viewBox="0 0 25 24" fill="none" xmlns="http://www.w3.org/2000/svg">
<path d="M23.4846 11.1076L1.48455 0.107565C1.31212 0.0213317 1.11844 -0.0132201 0.926831 0.00807002C0.735219 0.0293602 0.553847 0.105584 0.404552 0.227565C0.261977 0.347058 0.155559 0.503951 0.0972618 0.680609C0.0389648 0.857266 0.0311003 1.04668 0.0745524 1.22756L2.72455 10.9976H13.0346C13.5868 10.9976 14.0346 11.4453 14.0346 11.9976C14.0346 12.5499 13.5868 12.9976 13.0346 12.9976H2.72455L0.0345524 22.7376C-0.00622112 22.8886 -0.0109806 23.0471 0.0206567 23.2004C0.052294 23.3536 0.119446 23.4973 0.216711 23.6198C0.313977 23.7424 0.438643 23.8404 0.580686 23.906C0.722729 23.9716 0.878184 24.003 1.03455 23.9976C1.19109 23.9966 1.34523 23.9589 1.48455 23.8876L23.4846 12.8876C23.6484 12.8036 23.7858 12.6762 23.8818 12.5191C23.9778 12.3621 24.0286 12.1816 24.0286 11.9976C24.0286 11.8135 23.9778 11.633 23.8818 11.476C23.7858 11.319 23.6484 11.1915 23.4846 11.1076Z" fill="#1C4E79"/>
</svg>
