<svg width="24" height="24" viewBox="0 0 24 24" fill="none" xmlns="http://www.w3.org/2000/svg">
<path fill-rule="evenodd" clip-rule="evenodd" d="M9.66344 0.76225C9.19257 1.23312 9.03294 1.55309 9.03294 2.02598C9.03294 3.04523 8.0061 3.45711 7.06215 2.81658C4.69646 1.21117 1.21117 4.69646 2.81658 7.06215C3.45711 8.0061 3.04523 9.03294 2.02598 9.03294C1.55309 9.03294 1.23312 9.19257 0.76225 9.66344C-0.750181 11.1759 0.153231 14.9671 2.02598 14.9671C3.04523 14.9671 3.45711 15.9939 2.81658 16.9378C1.21117 19.3035 4.69646 22.7888 7.06215 21.1834C8.0061 20.5429 9.03294 20.9548 9.03294 21.974C9.03294 22.4469 9.19257 22.7669 9.66344 23.2377C11.1759 24.7502 14.9671 23.8468 14.9671 21.974C14.9671 20.9548 15.9939 20.5429 16.9378 21.1834C19.3035 22.7888 22.7888 19.3035 21.1834 16.9378C20.5429 15.9939 20.9548 14.9671 21.974 14.9671C23.8468 14.9671 24.7502 11.1759 23.2377 9.66344C22.7669 9.19257 22.4469 9.03294 21.974 9.03294C20.9548 9.03294 20.5429 8.0061 21.1834 7.06215C22.7888 4.69646 19.3035 1.21117 16.9378 2.81658C15.9939 3.45711 14.9671 3.04523 14.9671 2.02598C14.9671 0.153231 11.1759 -0.750181 9.66344 0.76225ZM13.2375 1.84707C13.3182 1.97459 13.4274 2.48837 13.4802 2.98885L13.5763 3.89879L14.8744 4.44034C16.7614 5.22756 16.7109 5.22442 17.4247 4.59771C18.2546 3.869 18.4171 3.87915 19.2707 4.71272C20.1222 5.54415 20.136 5.73962 19.4023 6.57532C18.7756 7.28914 18.7724 7.23858 19.5597 9.12569L20.1012 10.4238L21.0111 10.5198C22.2967 10.6554 22.3847 10.7503 22.3847 12C22.3847 13.2497 22.2967 13.3446 21.0111 13.4802L20.1012 13.5763L19.5597 14.8744C18.7724 16.7614 18.7756 16.7109 19.4023 17.4247C20.131 18.2546 20.1209 18.4171 19.2873 19.2707C18.4559 20.1222 18.2604 20.136 17.4247 19.4023C16.7109 18.7756 16.7614 18.7724 14.8744 19.5597L13.5763 20.1012L13.4802 21.0111C13.3446 22.2967 13.2497 22.3847 12 22.3847C10.7503 22.3847 10.6554 22.2967 10.5198 21.0111L10.4238 20.1012L9.12569 19.5597C7.23858 18.7724 7.28914 18.7756 6.57532 19.4023C5.74537 20.131 5.5829 20.1209 4.72927 19.2873C3.87778 18.4559 3.86396 18.2604 4.59771 17.4247C5.22442 16.7109 5.22756 16.7614 4.44034 14.8744L3.89879 13.5763L2.98885 13.4802C1.70334 13.3446 1.61528 13.2497 1.61528 12C1.61528 10.7503 1.70334 10.6554 2.98885 10.5198L3.89879 10.4238L4.44034 9.12569C5.22756 7.23858 5.22442 7.28914 4.59771 6.57532C3.869 5.74537 3.87915 5.5829 4.71272 4.72927C5.54415 3.87778 5.73962 3.86396 6.57532 4.59771C7.28914 5.22442 7.23858 5.22756 9.12569 4.44034L10.4238 3.89879L10.5198 2.98885C10.5726 2.48837 10.6818 1.97459 10.7625 1.84707C10.96 1.53517 13.04 1.53517 13.2375 1.84707ZM9.99658 7.10998C8.01227 7.83478 6.70083 10.0096 6.84289 12.34C7.25187 19.0492 17.0997 18.7228 17.0997 12C17.0997 8.1986 13.6043 5.79231 9.99658 7.10998ZM12.9787 8.48777C13.7727 8.70828 14.8626 9.59116 15.2388 10.3186C17.0493 13.8199 12.6231 17.3391 9.67008 14.7463C6.74403 12.1772 9.24289 7.45037 12.9787 8.48777Z" fill="#979C9E"/>
</svg>
