<svg width="34" height="48" viewBox="0 0 34 48" fill="none" xmlns="http://www.w3.org/2000/svg">
<path d="M29.1429 0H19.4286V9.7416C22.9046 10.1192 26.2371 11.3204 29.1429 13.2432V0ZM14.5714 0H4.85714V13.2432C7.76289 11.3204 11.0954 10.1192 14.5714 9.7416V0ZM17 48C21.5087 48 25.8327 46.23 29.0208 43.0794C32.2089 39.9288 34 35.6556 34 31.2C34 26.7444 32.2089 22.4712 29.0208 19.3206C25.8327 16.17 21.5087 14.4 17 14.4C12.4913 14.4 8.1673 16.17 4.97918 19.3206C1.79107 22.4712 0 26.7444 0 31.2C0 35.6556 1.79107 39.9288 4.97918 43.0794C8.1673 46.23 12.4913 48 17 48ZM14.025 27.5544L17 21.6L19.975 27.5544L26.6244 28.5072L21.8134 33.144L22.95 39.6888L17 36.6L11.0524 39.6888L12.189 33.144L7.378 28.5072L14.025 27.5544Z" fill="#9B9DA0"/>
</svg>
