<svg width="43" height="30" viewBox="0 0 43 30" fill="none" xmlns="http://www.w3.org/2000/svg">
<path d="M0 25V5C0 3.67392 0.566293 2.40215 1.5743 1.46447C2.58231 0.526784 3.94946 0 5.375 0H37.625C39.0505 0 40.4177 0.526784 41.4257 1.46447C42.4337 2.40215 43 3.67392 43 5V25C43 26.3261 42.4337 27.5979 41.4257 28.5355C40.4177 29.4732 39.0505 30 37.625 30H5.375C3.94946 30 2.58231 29.4732 1.5743 28.5355C0.566293 27.5979 0 26.3261 0 25ZM18.2481 7.7325C18.0472 7.59942 17.8108 7.52036 17.5647 7.50396C17.3187 7.48757 17.0726 7.53449 16.8533 7.63957C16.6341 7.74465 16.4501 7.90385 16.3217 8.09971C16.1932 8.29558 16.1252 8.52056 16.125 8.75V21.25C16.1252 21.4794 16.1932 21.7044 16.3217 21.9003C16.4501 22.0962 16.6341 22.2553 16.8533 22.3604C17.0726 22.4655 17.3187 22.5124 17.5647 22.496C17.8108 22.4796 18.0472 22.4006 18.2481 22.2675L27.6544 16.0175C27.8286 15.9019 27.9706 15.7492 28.0685 15.5722C28.1665 15.3952 28.2176 15.1991 28.2176 15C28.2176 14.8009 28.1665 14.6047 28.0685 14.4278C27.9706 14.2508 27.8286 14.0981 27.6544 13.9825L18.2481 7.7325Z" fill="#1C4E79"/>
</svg>
