<svg width="35" height="41" viewBox="0 0 35 41" fill="none" xmlns="http://www.w3.org/2000/svg">
<path d="M9.21053 13.0455H20.2632V9.31818C20.2632 7.76515 19.7259 6.44508 18.6513 5.35795C17.5768 4.27083 16.2719 3.72727 14.7368 3.72727C13.2018 3.72727 11.8969 4.27083 10.8224 5.35795C9.74781 6.44508 9.21053 7.76515 9.21053 9.31818V13.0455ZM25.7895 41C23.2412 41 21.0694 40.0918 19.2739 38.2754C17.4773 36.4577 16.5789 34.2598 16.5789 31.6818C16.5789 29.1038 17.4773 26.9059 19.2739 25.0883C21.0694 23.2718 23.2412 22.3636 25.7895 22.3636C28.3377 22.3636 30.5102 23.2718 32.3068 25.0883C34.1023 26.9059 35 29.1038 35 31.6818C35 34.2598 34.1023 36.4577 32.3068 38.2754C30.5102 40.0918 28.3377 41 25.7895 41ZM28.1842 35.4091C28.3684 35.5955 28.5833 35.6886 28.8289 35.6886C29.0746 35.6886 29.2895 35.5955 29.4737 35.4091C29.6579 35.2227 29.75 35.0053 29.75 34.7568C29.75 34.5083 29.6579 34.2909 29.4737 34.1045L26.7105 31.3091V27.0227C26.7105 26.7742 26.6184 26.5568 26.4342 26.3705C26.25 26.1841 26.0351 26.0909 25.7895 26.0909C25.5439 26.0909 25.3289 26.1841 25.1447 26.3705C24.9605 26.5568 24.8684 26.7742 24.8684 27.0227V31.6818C24.8684 31.7439 24.9605 31.9614 25.1447 32.3341L28.1842 35.4091ZM3.68421 39.1364C2.67105 39.1364 1.80403 38.7717 1.08316 38.0424C0.361052 37.3119 0 36.4341 0 35.4091V16.7727C0 15.7477 0.361052 14.87 1.08316 14.1394C1.80403 13.4101 2.67105 13.0455 3.68421 13.0455H5.52632V9.31818C5.52632 6.74015 6.42465 4.5423 8.22132 2.72464C10.0168 0.908212 12.1886 0 14.7368 0C17.2851 0 19.4575 0.908212 21.2542 2.72464C23.0497 4.5423 23.9474 6.74015 23.9474 9.31818V13.0455H25.7895C26.8026 13.0455 27.6703 13.4101 28.3924 14.1394C29.1132 14.87 29.4737 15.7477 29.4737 16.7727V19.1955C28.8596 18.978 28.2456 18.8302 27.6316 18.7519C27.0175 18.6749 26.4035 18.6364 25.7895 18.6364C22.1974 18.6364 19.1505 19.9018 16.6489 22.4326C14.1461 24.9647 12.8947 28.0477 12.8947 31.6818C12.8947 33.0174 13.1023 34.3139 13.5174 35.5712C13.9312 36.8298 14.4912 38.0182 15.1974 39.1364H3.68421Z" fill="#1C4E79"/>
</svg>
